ISO-10303-21;
HEADER;
FILE_DESCRIPTION (( 'STEP AP203' ),
    '1' );
FILE_NAME ('RB_TMF8829_0mm3H_5mm8S.STEP',
    '2025-10-17T13:33:24',
    ( '' ),
    ( '' ),
    'SwSTEP 2.0',
    'SolidWorks 2022',
    '' );
FILE_SCHEMA (( 'CONFIG_CONTROL_DESIGN' ));
ENDSEC;

DATA;
#1 = CARTESIAN_POINT ( 'NONE',  ( -0.8476502914506623965, 0.5636433694919364967, 1.800000000000000044 ) ) ;
#2 = DIRECTION ( 'NONE',  ( 1.000000000000000000, 0.000000000000000000, 0.000000000000000000 ) ) ;
#3 = ORIENTED_EDGE ( 'NONE', *, *, #402, .T. ) ;
#4 = ORIENTED_EDGE ( 'NONE', *, *, #477, .T. ) ;
#5 = DIRECTION ( 'NONE',  ( -0.000000000000000000, 1.000000000000000000, 0.000000000000000000 ) ) ;
#6 = FACE_OUTER_BOUND ( 'NONE', #204, .T. ) ;
#7 = VECTOR ( 'NONE', #502, 1000.000000000000000 ) ;
#8 = DIRECTION ( 'NONE',  ( -1.000000000000000000, 0.000000000000000000, -0.000000000000000000 ) ) ;
#9 = CIRCLE ( 'NONE', #420, 0.1999999999999999833 ) ;
#10 = AXIS2_PLACEMENT_3D ( 'NONE', #445, #514, #266 ) ;
#11 = EDGE_LOOP ( 'NONE', ( #275, #322, #786, #535 ) ) ;
#12 = DIRECTION ( 'NONE',  ( 0.000000000000000000, -1.000000000000000000, 0.000000000000000000 ) ) ;
#13 = CARTESIAN_POINT ( 'NONE',  ( -2.136920708549337800, -0.3636433694919364856, 1.500000000000000000 ) ) ;
#14 = EDGE_CURVE ( 'NONE', #680, #141, #221, .T. ) ;
#15 = CARTESIAN_POINT ( 'NONE',  ( 2.899598533506650089, -1.499650898701433643, 1.499999999999999556 ) ) ;
#16 = ORIENTED_EDGE ( 'NONE', *, *, #1128, .F. ) ;
#17 = EDGE_LOOP ( 'NONE', ( #534, #1089, #794, #283 ) ) ;
#18 = ORIENTED_EDGE ( 'NONE', *, *, #386, .F. ) ;
#19 = FACE_OUTER_BOUND ( 'NONE', #690, .T. ) ;
#20 = ORIENTED_EDGE ( 'NONE', *, *, #332, .T. ) ;
#21 = LINE ( 'NONE', #885, #222 ) ;
#22 = ORIENTED_EDGE ( 'NONE', *, *, #641, .T. ) ;
#23 = ADVANCED_FACE ( 'NONE', ( #132 ), #231, .F. ) ;
#24 = FACE_OUTER_BOUND ( 'NONE', #17, .T. ) ;
#25 = VERTEX_POINT ( 'NONE', #663 ) ;
#26 = CARTESIAN_POINT ( 'NONE',  ( 0.7639268976790803967, -1.148739255014325611, -0.0009999999999999158867 ) ) ;
#27 = DIRECTION ( 'NONE',  ( 0.000000000000000000, -0.000000000000000000, 1.000000000000000000 ) ) ;
#28 = CARTESIAN_POINT ( 'NONE',  ( -0.8476502914506628406, 0.5636433694919364967, 1.800000000000000044 ) ) ;
#29 = PRODUCT_DEFINITION ( 'UNKNOWN', '', #425, #525 ) ;
#30 = VERTEX_POINT ( 'NONE', #1017 ) ;
#31 = VERTEX_POINT ( 'NONE', #63 ) ;
#32 = VECTOR ( 'NONE', #893, 1000.000000000000000 ) ;
#33 = AXIS2_PLACEMENT_3D ( 'NONE', #770, #404, #757 ) ;
#34 = ORIENTED_EDGE ( 'NONE', *, *, #61, .T. ) ;
#35 = DIRECTION ( 'NONE',  ( 0.000000000000000000, 0.000000000000000000, -1.000000000000000000 ) ) ;
#36 = DIRECTION ( 'NONE',  ( -0.000000000000000000, 1.000000000000000000, 0.000000000000000000 ) ) ;
#37 = VERTEX_POINT ( 'NONE', #672 ) ;
#38 = EDGE_CURVE ( 'NONE', #940, #25, #493, .T. ) ;
#39 = CALENDAR_DATE ( 2025, 17, 10 ) ;
#40 = VERTEX_POINT ( 'NONE', #1032 ) ;
#41 = DIRECTION ( 'NONE',  ( 1.000000000000000000, 0.000000000000000000, 0.000000000000000000 ) ) ;
#42 = CARTESIAN_POINT ( 'NONE',  ( 2.899598533506650089, -1.499650898701433643, 0.000000000000000000 ) ) ;
#43 = ORIENTED_EDGE ( 'NONE', *, *, #315, .F. ) ;
#44 = COORDINATED_UNIVERSAL_TIME_OFFSET ( 1, 0, .AHEAD. ) ;
#45 = EDGE_CURVE ( 'NONE', #96, #898, #863, .T. ) ;
#46 = DIRECTION ( 'NONE',  ( 0.000000000000000000, 0.000000000000000000, -1.000000000000000000 ) ) ;
#47 = DIRECTION ( 'NONE',  ( 0.000000000000000000, 0.000000000000000000, -1.000000000000000000 ) ) ;
#48 = ORIENTED_EDGE ( 'NONE', *, *, #315, .T. ) ;
#49 = AXIS2_PLACEMENT_3D ( 'NONE', #448, #114, #808 ) ;
#50 = APPROVAL_DATE_TIME ( #381, #822 ) ;
#51 = AXIS2_PLACEMENT_3D ( 'NONE', #978, #1051, #461 ) ;
#52 = ORIENTED_EDGE ( 'NONE', *, *, #1128, .T. ) ;
#53 = CARTESIAN_POINT ( 'NONE',  ( 2.525445522320916236, 1.148739255014327387, 1.800000000000000044 ) ) ;
#54 = DIRECTION ( 'NONE',  ( -0.000000000000000000, -0.000000000000000000, 1.000000000000000000 ) ) ;
#55 = EDGE_CURVE ( 'NONE', #444, #1094, #952, .T. ) ;
#56 = ORIENTED_EDGE ( 'NONE', *, *, #984, .T. ) ;
#57 = APPROVAL_ROLE ( '' ) ;
#58 = ORIENTED_EDGE ( 'NONE', *, *, #961, .T. ) ;
#59 = DIRECTION ( 'NONE',  ( -1.000000000000000000, 0.000000000000000000, 0.000000000000000000 ) ) ;
#60 = DIRECTION ( 'NONE',  ( -0.000000000000000000, -0.000000000000000000, -1.000000000000000000 ) ) ;
#61 = EDGE_CURVE ( 'NONE', #214, #977, #511, .T. ) ;
#62 = VERTEX_POINT ( 'NONE', #90 ) ;
#63 = CARTESIAN_POINT ( 'NONE',  ( -2.136920708549337800, 0.3636433694919364856, 1.800000000000000044 ) ) ;
#64 = LINE ( 'NONE', #845, #673 ) ;
#65 = CARTESIAN_POINT ( 'NONE',  ( -3.499598533506649733, -2.099650898701433732, 1.800000000000000044 ) ) ;
#66 = VERTEX_POINT ( 'NONE', #496 ) ;
#67 = VECTOR ( 'NONE', #119, 1000.000000000000000 ) ;
#68 = AXIS2_PLACEMENT_3D ( 'NONE', #524, #268, #183 ) ;
#69 = CARTESIAN_POINT ( 'NONE',  ( -3.499598533506649733, 2.099650898701433732, 0.000000000000000000 ) ) ;
#70 = AXIS2_PLACEMENT_3D ( 'NONE', #225, #997, #668 ) ;
#71 = CYLINDRICAL_SURFACE ( 'NONE', #743, 0.2000000000000000944 ) ;
#72 = LINE ( 'NONE', #272, #1132 ) ;
#73 = EDGE_CURVE ( 'NONE', #940, #30, #1137, .T. ) ;
#74 = DIRECTION ( 'NONE',  ( -1.000000000000000000, 0.000000000000000000, -0.000000000000000000 ) ) ;
#75 = FACE_OUTER_BOUND ( 'NONE', #206, .T. ) ;
#76 = LINE ( 'NONE', #415, #963 ) ;
#77 = DIRECTION ( 'NONE',  ( 0.000000000000000000, 1.000000000000000000, 0.000000000000000000 ) ) ;
#78 = EDGE_CURVE ( 'NONE', #186, #111, #670, .T. ) ;
#79 = ORIENTED_EDGE ( 'NONE', *, *, #861, .T. ) ;
#80 = DIRECTION ( 'NONE',  ( 1.000000000000000000, 0.000000000000000000, 0.000000000000000000 ) ) ;
#81 = LINE ( 'NONE', #962, #605 ) ;
#82 = LINE ( 'NONE', #857, #408 ) ;
#83 = CARTESIAN_POINT ( 'NONE',  ( -0.6476502914506622188, -0.3636433694919364856, 1.800000000000000044 ) ) ;
#84 = VECTOR ( 'NONE', #862, 1000.000000000000000 ) ;
#85 = EDGE_CURVE ( 'NONE', #983, #305, #72, .T. ) ;
#86 = AXIS2_PLACEMENT_3D ( 'NONE', #1099, #749, #919 ) ;
#87 = DIRECTION ( 'NONE',  ( 0.000000000000000000, 0.000000000000000000, -1.000000000000000000 ) ) ;
#88 = DIRECTION ( 'NONE',  ( -1.000000000000000000, 0.000000000000000000, 0.000000000000000000 ) ) ;
#89 = FACE_OUTER_BOUND ( 'NONE', #882, .T. ) ;
#90 = CARTESIAN_POINT ( 'NONE',  ( -2.649598533506649645, 1.499650898701433643, 0.000000000000000000 ) ) ;
#91 = EDGE_CURVE ( 'NONE', #505, #37, #411, .T. ) ;
#92 = CARTESIAN_POINT ( 'NONE',  ( 0.9639268976790801302, 1.148739255014327387, 1.500000000000000000 ) ) ;
#93 = ORIENTED_EDGE ( 'NONE', *, *, #113, .T. ) ;
#94 = FACE_BOUND ( 'NONE', #558, .T. ) ;
#95 = ORIENTED_EDGE ( 'NONE', *, *, #922, .F. ) ;
#96 = VERTEX_POINT ( 'NONE', #1129 ) ;
#97 = ADVANCED_FACE ( 'NONE', ( #342 ), #430, .F. ) ;
#98 =( NAMED_UNIT ( * ) PLANE_ANGLE_UNIT ( ) SI_UNIT ( $, .RADIAN. ) );
#99 = LINE ( 'NONE', #1064, #853 ) ;
#100 = CLOSED_SHELL ( 'NONE', ( #1027, #602, #169, #657, #503, #590, #597, #784, #866, #294, #682, #156, #968, #258, #302, #276, #1050, #23, #185, #833, #1141, #467, #751, #546, #393, #487, #1066, #97, #1058, #797, #686, #517, #1107 ) ) ;
#101 = DIRECTION ( 'NONE',  ( -0.000000000000000000, -0.000000000000000000, -1.000000000000000000 ) ) ;
#102 = AXIS2_PLACEMENT_3D ( 'NONE', #1031, #778, #166 ) ;
#103 = ORIENTED_EDGE ( 'NONE', *, *, #129, .T. ) ;
#104 = DIRECTION ( 'NONE',  ( -1.000000000000000000, 0.000000000000000000, 0.000000000000000000 ) ) ;
#105 = EDGE_CURVE ( 'NONE', #505, #898, #875, .T. ) ;
#106 = FACE_OUTER_BOUND ( 'NONE', #652, .T. ) ;
#107 = PLANE ( 'NONE',  #388 ) ;
#108 = VERTEX_POINT ( 'NONE', #859 ) ;
#109 = ORIENTED_EDGE ( 'NONE', *, *, #955, .T. ) ;
#110 = ORIENTED_EDGE ( 'NONE', *, *, #904, .F. ) ;
#111 = VERTEX_POINT ( 'NONE', #1125 ) ;
#112 = DIRECTION ( 'NONE',  ( -0.000000000000000000, 1.000000000000000000, 0.000000000000000000 ) ) ;
#113 = EDGE_CURVE ( 'NONE', #451, #542, #604, .T. ) ;
#114 = DIRECTION ( 'NONE',  ( 3.739145816073775170E-17, -1.000000000000000000, 0.000000000000000000 ) ) ;
#115 = ORIENTED_EDGE ( 'NONE', *, *, #922, .T. ) ;
#116 = ORIENTED_EDGE ( 'NONE', *, *, #163, .T. ) ;
#117 = ORIENTED_EDGE ( 'NONE', *, *, #806, .T. ) ;
#118 = CYLINDRICAL_SURFACE ( 'NONE', #51, 0.2000000000000000944 ) ;
#119 = DIRECTION ( 'NONE',  ( 0.000000000000000000, 1.000000000000000000, 0.000000000000000000 ) ) ;
#120 = EDGE_CURVE ( 'NONE', #108, #656, #257, .T. ) ;
#121 = AXIS2_PLACEMENT_3D ( 'NONE', #811, #456, #526 ) ;
#122 = ORIENTED_EDGE ( 'NONE', *, *, #38, .F. ) ;
#123 = ORIENTED_EDGE ( 'NONE', *, *, #1013, .T. ) ;
#124 = AXIS2_PLACEMENT_3D ( 'NONE', #469, #1109, #1020 ) ;
#125 = PERSON_AND_ORGANIZATION ( #398, #819 ) ;
#126 = DIRECTION ( 'NONE',  ( 0.000000000000000000, 1.000000000000000000, 0.000000000000000000 ) ) ;
#127 = PLANE ( 'NONE',  #157 ) ;
#128 = ORIENTED_EDGE ( 'NONE', *, *, #1042, .F. ) ;
#129 = EDGE_CURVE ( 'NONE', #305, #30, #518, .T. ) ;
#130 = LINE ( 'NONE', #233, #159 ) ;
#131 = DIRECTION ( 'NONE',  ( -1.000000000000000000, 0.000000000000000000, 0.000000000000000000 ) ) ;
#132 = FACE_OUTER_BOUND ( 'NONE', #286, .T. ) ;
#133 = PERSON_AND_ORGANIZATION_ROLE ( 'creator' ) ;
#134 = MANIFOLD_SOLID_BREP ( 'Verrundung1', #100 ) ;
#135 = CYLINDRICAL_SURFACE ( 'NONE', #70, 0.1999999999999999833 ) ;
#136 = FACE_OUTER_BOUND ( 'NONE', #529, .T. ) ;
#137 = ORIENTED_EDGE ( 'NONE', *, *, #937, .T. ) ;
#138 = AXIS2_PLACEMENT_3D ( 'NONE', #155, #87, #958 ) ;
#139 = DATE_TIME_ROLE ( 'creation_date' ) ;
#140 = AXIS2_PLACEMENT_3D ( 'NONE', #561, #920, #235 ) ;
#141 = VERTEX_POINT ( 'NONE', #683 ) ;
#142 = CARTESIAN_POINT ( 'NONE',  ( -0.8476502914506623965, 0.5636433694919364967, 1.500000000000000000 ) ) ;
#143 = EDGE_CURVE ( 'NONE', #357, #431, #76, .T. ) ;
#144 = DIRECTION ( 'NONE',  ( 0.000000000000000000, -1.000000000000000000, 0.000000000000000000 ) ) ;
#145 = ORIENTED_EDGE ( 'NONE', *, *, #537, .F. ) ;
#146 = VERTEX_POINT ( 'NONE', #337 ) ;
#147 = CARTESIAN_POINT ( 'NONE',  ( -0.8476502914506622854, -0.3636433694919364856, 1.800000000000000044 ) ) ;
#148 = ORIENTED_EDGE ( 'NONE', *, *, #163, .F. ) ;
#149 = PRODUCT ( 'RB_TMF8829_0mm3H_5mm8S', 'RB_TMF8829_0mm3H_5mm8S', '', ( #347 ) ) ;
#150 = LINE ( 'NONE', #835, #671 ) ;
#151 = EDGE_CURVE ( 'NONE', #423, #1074, #81, .T. ) ;
#152 = DIRECTION ( 'NONE',  ( 1.415728810197205315E-16, -1.000000000000000000, 0.000000000000000000 ) ) ;
#153 = DIRECTION ( 'NONE',  ( -1.000000000000000000, 0.000000000000000000, 0.000000000000000000 ) ) ;
#154 = CARTESIAN_POINT ( 'NONE',  ( -2.649598533506649645, 1.499650898701433643, 1.500999999999999668 ) ) ;
#155 = CARTESIAN_POINT ( 'NONE',  ( -0.8476502914506623965, 0.3636433694919364856, -0.0009999999999999158867 ) ) ;
#156 = ADVANCED_FACE ( 'NONE', ( #349 ), #702, .F. ) ;
#157 = AXIS2_PLACEMENT_3D ( 'NONE', #579, #144, #491 ) ;
#158 = DIRECTION ( 'NONE',  ( 0.000000000000000000, -1.000000000000000000, 0.000000000000000000 ) ) ;
#159 = VECTOR ( 'NONE', #1009, 1000.000000000000000 ) ;
#160 = ORIENTED_EDGE ( 'NONE', *, *, #232, .T. ) ;
#161 = CARTESIAN_POINT ( 'NONE',  ( 2.649598533506649645, -1.499650898701433643, 1.499999999999999556 ) ) ;
#162 = CARTESIAN_POINT ( 'NONE',  ( -3.149598533506650089, -1.499650898701433643, 1.500999999999999668 ) ) ;
#163 = EDGE_CURVE ( 'NONE', #715, #986, #1037, .T. ) ;
#164 = DIRECTION ( 'NONE',  ( 1.000000000000000000, 0.000000000000000000, 0.000000000000000000 ) ) ;
#165 = ORIENTED_EDGE ( 'NONE', *, *, #413, .T. ) ;
#166 = DIRECTION ( 'NONE',  ( 0.000000000000000000, 0.000000000000000000, 1.000000000000000000 ) ) ;
#167 = CARTESIAN_POINT ( 'NONE',  ( -3.499598533506649733, -2.099650898701433732, 0.000000000000000000 ) ) ;
#168 = FACE_OUTER_BOUND ( 'NONE', #548, .T. ) ;
#169 = ADVANCED_FACE ( 'NONE', ( #1041, #262 ), #600, .F. ) ;
#170 = FACE_OUTER_BOUND ( 'NONE', #1012, .T. ) ;
#171 = DIRECTION ( 'NONE',  ( 0.000000000000000000, 0.000000000000000000, 1.000000000000000000 ) ) ;
#172 = DIRECTION ( 'NONE',  ( 1.000000000000000000, 0.000000000000000000, 0.000000000000000000 ) ) ;
#173 = VERTEX_POINT ( 'NONE', #277 ) ;
#174 = VECTOR ( 'NONE', #372, 1000.000000000000000 ) ;
#175 = DIRECTION ( 'NONE',  ( -1.000000000000000000, 0.000000000000000000, 0.000000000000000000 ) ) ;
#176 = EDGE_CURVE ( 'NONE', #460, #357, #791, .T. ) ;
#177 = VECTOR ( 'NONE', #60, 1000.000000000000000 ) ;
#178 = VECTOR ( 'NONE', #1049, 1000.000000000000000 ) ;
#179 = CARTESIAN_POINT ( 'NONE',  ( -2.899598533506650089, -1.499650898701433643, 0.000000000000000000 ) ) ;
#180 = ORIENTED_EDGE ( 'NONE', *, *, #745, .F. ) ;
#181 = CARTESIAN_POINT ( 'NONE',  ( -2.899598533506650089, -1.249650898701433199, 1.500999999999999668 ) ) ;
#182 = VERTEX_POINT ( 'NONE', #197 ) ;
#183 = DIRECTION ( 'NONE',  ( -1.000000000000000000, 0.000000000000000000, 0.000000000000000000 ) ) ;
#184 = CARTESIAN_POINT ( 'NONE',  ( -2.899598533506650089, -1.499650898701433643, 1.500999999999999668 ) ) ;
#185 = ADVANCED_FACE ( 'NONE', ( #282 ), #708, .F. ) ;
#186 = VERTEX_POINT ( 'NONE', #734 ) ;
#187 = DIRECTION ( 'NONE',  ( -0.000000000000000000, -0.000000000000000000, -1.000000000000000000 ) ) ;
#188 = CYLINDRICAL_SURFACE ( 'NONE', #290, 0.2500000000000002220 ) ;
#189 = ORIENTED_EDGE ( 'NONE', *, *, #666, .T. ) ;
#190 = DIRECTION ( 'NONE',  ( 0.000000000000000000, 0.000000000000000000, -1.000000000000000000 ) ) ;
#191 = ORIENTED_EDGE ( 'NONE', *, *, #623, .F. ) ;
#192 = EDGE_CURVE ( 'NONE', #186, #637, #227, .T. ) ;
#193 = ORIENTED_EDGE ( 'NONE', *, *, #1038, .T. ) ;
#194 = ORIENTED_EDGE ( 'NONE', *, *, #418, .F. ) ;
#195 = CARTESIAN_POINT ( 'NONE',  ( 2.525445522320916236, 0.9487392550143273207, 1.500000000000000000 ) ) ;
#196 = AXIS2_PLACEMENT_3D ( 'NONE', #462, #379, #820 ) ;
#197 = CARTESIAN_POINT ( 'NONE',  ( 2.725445522320917302, -0.9487392550143255443, 1.500000000000000000 ) ) ;
#198 = AXIS2_PLACEMENT_3D ( 'NONE', #195, #971, #520 ) ;
#199 = ORIENTED_EDGE ( 'NONE', *, *, #14, .F. ) ;
#200 = VECTOR ( 'NONE', #158, 1000.000000000000000 ) ;
#201 = EDGE_LOOP ( 'NONE', ( #18, #580, #659, #665 ) ) ;
#202 = EDGE_CURVE ( 'NONE', #823, #325, #308, .T. ) ;
#203 = EDGE_LOOP ( 'NONE', ( #234, #223, #115, #436 ) ) ;
#204 = EDGE_LOOP ( 'NONE', ( #807, #395, #872, #457 ) ) ;
#205 = DIRECTION ( 'NONE',  ( 1.000000000000000000, 0.000000000000000000, 0.000000000000000000 ) ) ;
#206 = EDGE_LOOP ( 'NONE', ( #376, #999, #3, #586 ) ) ;
#207 = CYLINDRICAL_SURFACE ( 'NONE', #887, 0.2500000000000002220 ) ;
#208 = ORIENTED_EDGE ( 'NONE', *, *, #78, .F. ) ;
#209 = APPROVAL_STATUS ( 'not_yet_approved' ) ;
#210 = VERTEX_POINT ( 'NONE', #28 ) ;
#211 = DIRECTION ( 'NONE',  ( 0.000000000000000000, -0.000000000000000000, 1.000000000000000000 ) ) ;
#212 = EDGE_CURVE ( 'NONE', #444, #550, #551, .T. ) ;
#213 = CARTESIAN_POINT ( 'NONE',  ( -3.499598533506649733, -2.099650898701433732, 0.000000000000000000 ) ) ;
#214 = VERTEX_POINT ( 'NONE', #1087 ) ;
#215 = ORIENTED_EDGE ( 'NONE', *, *, #492, .T. ) ;
#216 = PERSON_AND_ORGANIZATION ( #398, #819 ) ;
#217 = ORIENTED_EDGE ( 'NONE', *, *, #675, .F. ) ;
#218 = PLANE ( 'NONE',  #515 ) ;
#219 = ORIENTED_EDGE ( 'NONE', *, *, #14, .T. ) ;
#220 = DIRECTION ( 'NONE',  ( -1.000000000000000000, 0.000000000000000000, 0.000000000000000000 ) ) ;
#221 = CIRCLE ( 'NONE', #1114, 0.2500000000000002220 ) ;
#222 = VECTOR ( 'NONE', #370, 1000.000000000000000 ) ;
#223 = ORIENTED_EDGE ( 'NONE', *, *, #377, .T. ) ;
#224 = VECTOR ( 'NONE', #412, 1000.000000000000000 ) ;
#225 = CARTESIAN_POINT ( 'NONE',  ( 0.9639268976790804633, -0.9487392550143256553, -0.0009999999999999158867 ) ) ;
#226 = CARTESIAN_POINT ( 'NONE',  ( -0.8476502914506628406, -0.5636433694919364967, 1.800000000000000044 ) ) ;
#227 = LINE ( 'NONE', #15, #174 ) ;
#228 = DATE_AND_TIME ( #918, #1024 ) ;
#229 = FACE_OUTER_BOUND ( 'NONE', #892, .T. ) ;
#230 = DIRECTION ( 'NONE',  ( -1.000000000000000000, 0.000000000000000000, 0.000000000000000000 ) ) ;
#231 = PLANE ( 'NONE',  #497 ) ;
#232 = EDGE_CURVE ( 'NONE', #917, #305, #545, .T. ) ;
#233 = CARTESIAN_POINT ( 'NONE',  ( -2.136920708549337800, 0.5636433694919364967, 1.800000000000000044 ) ) ;
#234 = ORIENTED_EDGE ( 'NONE', *, *, #432, .T. ) ;
#235 = DIRECTION ( 'NONE',  ( -0.000000000000000000, 0.000000000000000000, 1.000000000000000000 ) ) ;
#236 = VERTEX_POINT ( 'NONE', #360 ) ;
#237 = ORIENTED_EDGE ( 'NONE', *, *, #202, .F. ) ;
#238 = CIRCLE ( 'NONE', #1116, 0.2500000000000002220 ) ;
#239 = EDGE_CURVE ( 'NONE', #30, #642, #886, .T. ) ;
#240 = LINE ( 'NONE', #578, #689 ) ;
#241 = CC_DESIGN_APPROVAL ( #1100, ( #592 ) ) ;
#242 = DIRECTION ( 'NONE',  ( 0.000000000000000000, 0.000000000000000000, 1.000000000000000000 ) ) ;
#243 = ORIENTED_EDGE ( 'NONE', *, *, #881, .F. ) ;
#244 = DIRECTION ( 'NONE',  ( 0.000000000000000000, -0.000000000000000000, -1.000000000000000000 ) ) ;
#245 = DIRECTION ( 'NONE',  ( -1.000000000000000000, 0.000000000000000000, 0.000000000000000000 ) ) ;
#246 = EDGE_CURVE ( 'NONE', #210, #1088, #989, .T. ) ;
#247 = ORIENTED_EDGE ( 'NONE', *, *, #772, .T. ) ;
#248 = DIRECTION ( 'NONE',  ( 0.000000000000000000, 0.000000000000000000, -1.000000000000000000 ) ) ;
#249 = CARTESIAN_POINT ( 'NONE',  ( -3.149598533506650089, 1.499650898701433643, 0.000000000000000000 ) ) ;
#250 = EDGE_CURVE ( 'NONE', #550, #62, #439, .T. ) ;
#251 = CARTESIAN_POINT ( 'NONE',  ( 0.7639268976790800636, 1.148739255014327387, 1.500000000000000000 ) ) ;
#252 = VECTOR ( 'NONE', #728, 1000.000000000000000 ) ;
#253 = AXIS2_PLACEMENT_3D ( 'NONE', #1133, #333, #175 ) ;
#254 = DIRECTION ( 'NONE',  ( -0.000000000000000000, 0.000000000000000000, 1.000000000000000000 ) ) ;
#255 = APPROVAL_PERSON_ORGANIZATION ( #838, #649, #458 ) ;
#256 = DIRECTION ( 'NONE',  ( 0.000000000000000000, 0.000000000000000000, -1.000000000000000000 ) ) ;
#257 = LINE ( 'NONE', #1140, #646 ) ;
#258 = ADVANCED_FACE ( 'NONE', ( #615 ), #207, .F. ) ;
#259 = ADVANCED_BREP_SHAPE_REPRESENTATION ( 'RB_TMF8829_0mm3H_5mm8S', ( #134, #746 ), #375 ) ;
#260 = LINE ( 'NONE', #598, #1098 ) ;
#261 = CARTESIAN_POINT ( 'NONE',  ( -0.6476502914506622188, 0.5636433694919364967, -0.0009999999999999158867 ) ) ;
#262 = FACE_BOUND ( 'NONE', #953, .T. ) ;
#263 = CARTESIAN_POINT ( 'NONE',  ( -2.899598533506650089, -1.499650898701433643, 1.500999999999999668 ) ) ;
#264 = CARTESIAN_POINT ( 'NONE',  ( -2.136920708549337800, -0.3636433694919364856, 1.500000000000000000 ) ) ;
#265 = DIRECTION ( 'NONE',  ( -0.000000000000000000, -0.000000000000000000, -1.000000000000000000 ) ) ;
#266 = DIRECTION ( 'NONE',  ( -1.000000000000000000, 0.000000000000000000, 0.000000000000000000 ) ) ;
#267 = VECTOR ( 'NONE', #1057, 1000.000000000000000 ) ;
#268 = DIRECTION ( 'NONE',  ( 0.000000000000000000, 0.000000000000000000, -1.000000000000000000 ) ) ;
#269 = EDGE_CURVE ( 'NONE', #367, #173, #442, .T. ) ;
#270 = AXIS2_PLACEMENT_3D ( 'NONE', #603, #410, #764 ) ;
#271 = VECTOR ( 'NONE', #164, 1000.000000000000000 ) ;
#272 = CARTESIAN_POINT ( 'NONE',  ( -3.499598533506649733, -2.099650898701433732, 0.000000000000000000 ) ) ;
#273 =( NAMED_UNIT ( * ) SI_UNIT ( $, .STERADIAN. ) SOLID_ANGLE_UNIT ( ) );
#274 = CARTESIAN_POINT ( 'NONE',  ( -3.499598533506649733, 2.099650898701433732, 1.800000000000000044 ) ) ;
#275 = ORIENTED_EDGE ( 'NONE', *, *, #699, .F. ) ;
#276 = ADVANCED_FACE ( 'NONE', ( #799, #94, #894 ), #107, .T. ) ;
#277 = CARTESIAN_POINT ( 'NONE',  ( -0.6476502914506622188, 0.3636433694919364856, 1.500000000000000000 ) ) ;
#278 = ORIENTED_EDGE ( 'NONE', *, *, #881, .T. ) ;
#279 = ORIENTED_EDGE ( 'NONE', *, *, #143, .F. ) ;
#280 = CARTESIAN_POINT ( 'NONE',  ( -1.936920708549337622, 0.5636433694919364967, 1.800000000000000044 ) ) ;
#281 = DIRECTION ( 'NONE',  ( -3.775276827192547836E-16, 1.000000000000000000, 0.000000000000000000 ) ) ;
#282 = FACE_OUTER_BOUND ( 'NONE', #747, .T. ) ;
#283 = ORIENTED_EDGE ( 'NONE', *, *, #105, .F. ) ;
#284 = ORIENTED_EDGE ( 'NONE', *, *, #212, .F. ) ;
#285 = CARTESIAN_POINT ( 'NONE',  ( -2.899598533506650089, 1.499650898701433643, 0.000000000000000000 ) ) ;
#286 = EDGE_LOOP ( 'NONE', ( #990, #123, #826, #1063 ) ) ;
#287 = DIRECTION ( 'NONE',  ( 0.000000000000000000, 1.000000000000000000, 0.000000000000000000 ) ) ;
#288 = AXIS2_PLACEMENT_3D ( 'NONE', #289, #635, #994 ) ;
#289 = CARTESIAN_POINT ( 'NONE',  ( 2.899598533506650089, -1.499650898701433643, 1.500999999999999668 ) ) ;
#290 = AXIS2_PLACEMENT_3D ( 'NONE', #297, #348, #798 ) ;
#291 = VECTOR ( 'NONE', #41, 1000.000000000000000 ) ;
#292 = VERTEX_POINT ( 'NONE', #901 ) ;
#293 = ORIENTED_EDGE ( 'NONE', *, *, #699, .T. ) ;
#294 = ADVANCED_FACE ( 'NONE', ( #356 ), #541, .T. ) ;
#295 = ORIENTED_EDGE ( 'NONE', *, *, #176, .F. ) ;
#296 = ORIENTED_EDGE ( 'NONE', *, *, #151, .T. ) ;
#297 = CARTESIAN_POINT ( 'NONE',  ( -2.899598533506650089, 1.499650898701433643, 1.500999999999999668 ) ) ;
#298 = DIRECTION ( 'NONE',  ( 0.000000000000000000, 0.000000000000000000, -1.000000000000000000 ) ) ;
#299 = ORIENTED_EDGE ( 'NONE', *, *, #712, .T. ) ;
#300 = ORIENTED_EDGE ( 'NONE', *, *, #694, .F. ) ;
#301 = PERSON_AND_ORGANIZATION ( #398, #819 ) ;
#302 = ADVANCED_FACE ( 'NONE', ( #24 ), #365, .F. ) ;
#303 = DIRECTION ( 'NONE',  ( 1.000000000000000000, 0.000000000000000000, 0.000000000000000000 ) ) ;
#304 = CARTESIAN_POINT ( 'NONE',  ( 3.499598533506649733, -2.099650898701433732, 0.000000000000000000 ) ) ;
#305 = VERTEX_POINT ( 'NONE', #213 ) ;
#306 = FACE_OUTER_BOUND ( 'NONE', #667, .T. ) ;
#307 = CARTESIAN_POINT ( 'NONE',  ( -3.149598533506650089, -1.499650898701433643, 1.500000000000000000 ) ) ;
#308 = CIRCLE ( 'NONE', #944, 0.2000000000000000944 ) ;
#309 = CIRCLE ( 'NONE', #591, 0.2000000000000000944 ) ;
#310 = ORIENTED_EDGE ( 'NONE', *, *, #343, .T. ) ;
#311 = AXIS2_PLACEMENT_3D ( 'NONE', #840, #313, #818 ) ;
#312 = APPROVAL_ROLE ( '' ) ;
#313 = DIRECTION ( 'NONE',  ( -0.000000000000000000, -0.000000000000000000, 1.000000000000000000 ) ) ;
#314 = CARTESIAN_POINT ( 'NONE',  ( 2.899598533506650089, -1.499650898701433643, 1.500000000000000000 ) ) ;
#315 = EDGE_CURVE ( 'NONE', #680, #111, #1105, .T. ) ;
#316 = ORIENTED_EDGE ( 'NONE', *, *, #113, .F. ) ;
#317 = PERSON_AND_ORGANIZATION ( #398, #819 ) ;
#318 = CARTESIAN_POINT ( 'NONE',  ( -2.899598533506650089, -1.499650898701433643, 9.662284923264962799 ) ) ;
#319 = CARTESIAN_POINT ( 'NONE',  ( -0.6476502914506622188, -0.3636433694919364856, 1.500000000000000000 ) ) ;
#320 = ORIENTED_EDGE ( 'NONE', *, *, #45, .F. ) ;
#321 = EDGE_CURVE ( 'NONE', #505, #637, #1073, .T. ) ;
#322 = ORIENTED_EDGE ( 'NONE', *, *, #973, .T. ) ;
#323 = CARTESIAN_POINT ( 'NONE',  ( 2.525445522320916236, 1.148739255014327387, 1.500000000000000000 ) ) ;
#324 = CARTESIAN_POINT ( 'NONE',  ( -2.899598533506650089, 1.249650898701433199, 0.000000000000000000 ) ) ;
#325 = VERTEX_POINT ( 'NONE', #643 ) ;
#326 = EDGE_CURVE ( 'NONE', #788, #823, #739, .T. ) ;
#327 = CIRCLE ( 'NONE', #609, 0.2000000000000000944 ) ;
#328 = LINE ( 'NONE', #494, #912 ) ;
#329 = PLANE ( 'NONE',  #1021 ) ;
#330 = ORIENTED_EDGE ( 'NONE', *, *, #192, .F. ) ;
#331 = PLANE ( 'NONE',  #836 ) ;
#332 = EDGE_CURVE ( 'NONE', #186, #141, #1011, .T. ) ;
#333 = DIRECTION ( 'NONE',  ( -0.000000000000000000, -0.000000000000000000, 1.000000000000000000 ) ) ;
#334 = DIRECTION ( 'NONE',  ( -0.000000000000000000, -0.000000000000000000, -1.000000000000000000 ) ) ;
#335 = CARTESIAN_POINT ( 'NONE',  ( -2.136920708549337800, 0.5636433694919364967, 1.500000000000000000 ) ) ;
#336 = PLANE ( 'NONE',  #725 ) ;
#337 = CARTESIAN_POINT ( 'NONE',  ( -0.8476502914506623965, -0.5636433694919364967, 1.500000000000000000 ) ) ;
#338 = CIRCLE ( 'NONE', #1097, 0.2499999999999997780 ) ;
#339 = CARTESIAN_POINT ( 'NONE',  ( -3.499598533506649733, -2.099650898701433732, 1.800000000000000044 ) ) ;
#340 = AXIS2_PLACEMENT_3D ( 'NONE', #785, #970, #104 ) ;
#341 = LINE ( 'NONE', #599, #817 ) ;
#342 = FACE_OUTER_BOUND ( 'NONE', #709, .T. ) ;
#343 = EDGE_CURVE ( 'NONE', #532, #384, #553, .T. ) ;
#344 = DIRECTION ( 'NONE',  ( 0.000000000000000000, 0.000000000000000000, 1.000000000000000000 ) ) ;
#345 = DIRECTION ( 'NONE',  ( 0.000000000000000000, 0.000000000000000000, -1.000000000000000000 ) ) ;
#346 = DIRECTION ( 'NONE',  ( 1.000000000000000000, 0.000000000000000000, 0.000000000000000000 ) ) ;
#347 = MECHANICAL_CONTEXT ( 'NONE', #374, 'mechanical' ) ;
#348 = DIRECTION ( 'NONE',  ( -0.000000000000000000, -0.000000000000000000, -1.000000000000000000 ) ) ;
#349 = FACE_OUTER_BOUND ( 'NONE', #934, .T. ) ;
#350 = DIRECTION ( 'NONE',  ( -0.000000000000000000, -0.000000000000000000, -1.000000000000000000 ) ) ;
#351 = VECTOR ( 'NONE', #611, 1000.000000000000000 ) ;
#352 = EDGE_CURVE ( 'NONE', #527, #637, #567, .T. ) ;
#353 = CIRCLE ( 'NONE', #513, 0.2500000000000002220 ) ;
#354 = LINE ( 'NONE', #544, #463 ) ;
#355 = AXIS2_PLACEMENT_3D ( 'NONE', #421, #777, #1138 ) ;
#356 = FACE_OUTER_BOUND ( 'NONE', #1055, .T. ) ;
#357 = VERTEX_POINT ( 'NONE', #936 ) ;
#358 = FACE_OUTER_BOUND ( 'NONE', #752, .T. ) ;
#359 = DIRECTION ( 'NONE',  ( -1.000000000000000000, 0.000000000000000000, 0.000000000000000000 ) ) ;
#360 = CARTESIAN_POINT ( 'NONE',  ( -1.936920708549337622, 0.5636433694919364967, 1.500000000000000000 ) ) ;
#361 = ORIENTED_EDGE ( 'NONE', *, *, #250, .F. ) ;
#362 = CYLINDRICAL_SURFACE ( 'NONE', #10, 0.1999999999999999833 ) ;
#363 = ORIENTED_EDGE ( 'NONE', *, *, #176, .T. ) ;
#364 = CARTESIAN_POINT ( 'NONE',  ( 2.725445522320916414, 1.148739255014327387, 1.800000000000000044 ) ) ;
#365 = CYLINDRICAL_SURFACE ( 'NONE', #288, 0.2499999999999997780 ) ;
#366 = EDGE_CURVE ( 'NONE', #788, #656, #150, .T. ) ;
#367 = VERTEX_POINT ( 'NONE', #319 ) ;
#368 = LINE ( 'NONE', #608, #985 ) ;
#369 = ORIENTED_EDGE ( 'NONE', *, *, #477, .F. ) ;
#370 = DIRECTION ( 'NONE',  ( 0.000000000000000000, 0.000000000000000000, 1.000000000000000000 ) ) ;
#371 = VECTOR ( 'NONE', #533, 1000.000000000000000 ) ;
#372 = DIRECTION ( 'NONE',  ( 0.000000000000000000, -1.000000000000000000, 0.000000000000000000 ) ) ;
#373 = AXIS2_PLACEMENT_3D ( 'NONE', #486, #387, #220 ) ;
#374 = APPLICATION_CONTEXT ( 'configuration controlled 3d designs of mechanical parts and assemblies' ) ;
#375 =( GEOMETRIC_REPRESENTATION_CONTEXT ( 3 ) GLOBAL_UNCERTAINTY_ASSIGNED_CONTEXT ( ( #1010 ) ) GLOBAL_UNIT_ASSIGNED_CONTEXT ( ( #523, #98, #273 ) ) REPRESENTATION_CONTEXT ( 'NONE', 'WORKASPACE' ) );
#376 = ORIENTED_EDGE ( 'NONE', *, *, #232, .F. ) ;
#377 = EDGE_CURVE ( 'NONE', #722, #917, #650, .T. ) ;
#378 = FACE_OUTER_BOUND ( 'NONE', #1060, .T. ) ;
#379 = DIRECTION ( 'NONE',  ( 0.000000000000000000, 0.000000000000000000, -1.000000000000000000 ) ) ;
#380 = ORIENTED_EDGE ( 'NONE', *, *, #91, .T. ) ;
#381 = DATE_AND_TIME ( #1001, #931 ) ;
#382 = DIRECTION ( 'NONE',  ( -0.000000000000000000, -0.000000000000000000, 1.000000000000000000 ) ) ;
#383 = LINE ( 'NONE', #474, #775 ) ;
#384 = VERTEX_POINT ( 'NONE', #669 ) ;
#385 = LINE ( 'NONE', #1086, #271 ) ;
#386 = EDGE_CURVE ( 'NONE', #384, #550, #1101, .T. ) ;
#387 = DIRECTION ( 'NONE',  ( -0.000000000000000000, -0.000000000000000000, 1.000000000000000000 ) ) ;
#388 = AXIS2_PLACEMENT_3D ( 'NONE', #789, #298, #8 ) ;
#389 = VERTEX_POINT ( 'NONE', #226 ) ;
#390 = AXIS2_PLACEMENT_3D ( 'NONE', #724, #803, #88 ) ;
#391 = COORDINATED_UNIVERSAL_TIME_OFFSET ( 1, 0, .AHEAD. ) ;
#392 = LINE ( 'NONE', #913, #291 ) ;
#393 = ADVANCED_FACE ( 'NONE', ( #136 ), #127, .F. ) ;
#394 = DIRECTION ( 'NONE',  ( 0.000000000000000000, 0.000000000000000000, 1.000000000000000000 ) ) ;
#395 = ORIENTED_EDGE ( 'NONE', *, *, #55, .F. ) ;
#396 = ORIENTED_EDGE ( 'NONE', *, *, #876, .T. ) ;
#397 = PLANE ( 'NONE',  #1118 ) ;
#398 = PERSON ( 'UNSPECIFIED', 'UNSPECIFIED', 'UNSPECIFIED', ('UNSPECIFIED'), ('UNSPECIFIED'), ('UNSPECIFIED') ) ;
#399 = CARTESIAN_POINT ( 'NONE',  ( -3.149598533506650089, 1.499650898701433643, 1.500999999999999668 ) ) ;
#400 = EDGE_LOOP ( 'NONE', ( #316, #1120, #16, #644 ) ) ;
#401 = ORIENTED_EDGE ( 'NONE', *, *, #91, .F. ) ;
#402 = EDGE_CURVE ( 'NONE', #722, #983, #479, .T. ) ;
#403 = ORIENTED_EDGE ( 'NONE', *, *, #202, .T. ) ;
#404 = DIRECTION ( 'NONE',  ( -0.000000000000000000, -0.000000000000000000, 1.000000000000000000 ) ) ;
#405 = DIRECTION ( 'NONE',  ( -0.000000000000000000, -1.000000000000000000, -0.000000000000000000 ) ) ;
#406 = ORIENTED_EDGE ( 'NONE', *, *, #827, .T. ) ;
#407 = AXIS2_PLACEMENT_3D ( 'NONE', #687, #419, #1052 ) ;
#408 = VECTOR ( 'NONE', #864, 1000.000000000000000 ) ;
#409 = CARTESIAN_POINT ( 'NONE',  ( 0.9639268976790804633, -1.148739255014325611, 1.800000000000000044 ) ) ;
#410 = DIRECTION ( 'NONE',  ( -0.000000000000000000, -0.000000000000000000, 1.000000000000000000 ) ) ;
#411 = LINE ( 'NONE', #698, #7 ) ;
#412 = DIRECTION ( 'NONE',  ( 1.000000000000000000, -0.000000000000000000, -0.000000000000000000 ) ) ;
#413 = EDGE_CURVE ( 'NONE', #146, #367, #9, .T. ) ;
#414 = DIRECTION ( 'NONE',  ( 0.000000000000000000, 0.000000000000000000, -1.000000000000000000 ) ) ;
#415 = CARTESIAN_POINT ( 'NONE',  ( 2.525445522320917124, -1.148739255014325611, 1.500000000000000000 ) ) ;
#416 = CARTESIAN_POINT ( 'NONE',  ( 3.499598533506649733, -2.099650898701433732, 1.800000000000000044 ) ) ;
#417 = DIRECTION ( 'NONE',  ( -1.000000000000000000, -0.000000000000000000, -0.000000000000000000 ) ) ;
#418 = EDGE_CURVE ( 'NONE', #214, #974, #998, .T. ) ;
#419 = DIRECTION ( 'NONE',  ( -0.000000000000000000, -0.000000000000000000, -1.000000000000000000 ) ) ;
#420 = AXIS2_PLACEMENT_3D ( 'NONE', #847, #54, #1110 ) ;
#421 = CARTESIAN_POINT ( 'NONE',  ( 0.9639268976790801302, 0.9487392550143273207, 1.800000000000000044 ) ) ;
#422 = AXIS2_PLACEMENT_3D ( 'NONE', #26, #12, #428 ) ;
#423 = VERTEX_POINT ( 'NONE', #758 ) ;
#424 = CARTESIAN_POINT ( 'NONE',  ( -1.936920708549337622, -0.3636433694919364856, -0.0009999999999999158867 ) ) ;
#425 = PRODUCT_DEFINITION_FORMATION_WITH_SPECIFIED_SOURCE ( 'ANY', '', #149, .NOT_KNOWN. ) ;
#426 = CC_DESIGN_PERSON_AND_ORGANIZATION_ASSIGNMENT ( #748, #564, ( #425 ) ) ;
#427 = CARTESIAN_POINT ( 'NONE',  ( 2.899598533506650089, 1.499650898701433865, 1.500000000000000000 ) ) ;
#428 = DIRECTION ( 'NONE',  ( 0.000000000000000000, -0.000000000000000000, -1.000000000000000000 ) ) ;
#429 = DIRECTION ( 'NONE',  ( 1.000000000000000000, 0.000000000000000000, 0.000000000000000000 ) ) ;
#430 = CYLINDRICAL_SURFACE ( 'NONE', #138, 0.2000000000000000944 ) ;
#431 = VERTEX_POINT ( 'NONE', #825 ) ;
#432 = EDGE_CURVE ( 'NONE', #25, #722, #750, .T. ) ;
#433 = CARTESIAN_POINT ( 'NONE',  ( 0.000000000000000000, 0.000000000000000000, 0.000000000000000000 ) ) ;
#434 = CARTESIAN_POINT ( 'NONE',  ( -0.8476502914506622854, -0.5636433694919364967, 1.500000000000000000 ) ) ;
#435 = CARTESIAN_POINT ( 'NONE',  ( -2.899598533506650089, 1.499650898701433643, 0.000000000000000000 ) ) ;
#436 = ORIENTED_EDGE ( 'NONE', *, *, #38, .T. ) ;
#437 = CC_DESIGN_DATE_AND_TIME_ASSIGNMENT ( #1108, #732, ( #592 ) ) ;
#438 = PERSON_AND_ORGANIZATION_ROLE ( 'design_owner' ) ;
#439 = CIRCLE ( 'NONE', #1095, 0.2500000000000002220 ) ;
#440 = VECTOR ( 'NONE', #555, 1000.000000000000000 ) ;
#441 = CARTESIAN_POINT ( 'NONE',  ( -2.136920708549337800, -0.3636433694919364856, 1.800000000000000044 ) ) ;
#442 = LINE ( 'NONE', #521, #252 ) ;
#443 = EDGE_LOOP ( 'NONE', ( #992, #622, #191, #942, #980, #403, #180, #363 ) ) ;
#444 = VERTEX_POINT ( 'NONE', #324 ) ;
#445 = CARTESIAN_POINT ( 'NONE',  ( -0.8476502914506622854, -0.3636433694919364856, -0.0009999999999999158867 ) ) ;
#446 = CARTESIAN_POINT ( 'NONE',  ( 3.499598533506649733, 2.099650898701433732, 0.000000000000000000 ) ) ;
#447 = EDGE_CURVE ( 'NONE', #527, #898, #338, .T. ) ;
#448 = CARTESIAN_POINT ( 'NONE',  ( -2.899598533506650089, 1.499650898701433643, 9.662284923264962799 ) ) ;
#449 = ORIENTED_EDGE ( 'NONE', *, *, #1006, .F. ) ;
#450 = ORIENTED_EDGE ( 'NONE', *, *, #904, .T. ) ;
#451 = VERTEX_POINT ( 'NONE', #307 ) ;
#452 = CYLINDRICAL_SURFACE ( 'NONE', #390, 0.1999999999999999833 ) ;
#453 = ORIENTED_EDGE ( 'NONE', *, *, #1091, .F. ) ;
#454 = CARTESIAN_POINT ( 'NONE',  ( -2.899598533506650089, 1.499650898701433643, 1.500000000000000000 ) ) ;
#455 = CC_DESIGN_PERSON_AND_ORGANIZATION_ASSIGNMENT ( #317, #543, ( #592 ) ) ;
#456 = DIRECTION ( 'NONE',  ( 0.000000000000000000, 0.000000000000000000, 1.000000000000000000 ) ) ;
#457 = ORIENTED_EDGE ( 'NONE', *, *, #1084, .F. ) ;
#458 = APPROVAL_ROLE ( '' ) ;
#459 = ORIENTED_EDGE ( 'NONE', *, *, #85, .F. ) ;
#460 = VERTEX_POINT ( 'NONE', #1117 ) ;
#461 = DIRECTION ( 'NONE',  ( -1.000000000000000000, 0.000000000000000000, 0.000000000000000000 ) ) ;
#462 = CARTESIAN_POINT ( 'NONE',  ( 2.525445522320917124, -0.9487392550143255443, 1.800000000000000044 ) ) ;
#463 = VECTOR ( 'NONE', #634, 1000.000000000000000 ) ;
#464 = VECTOR ( 'NONE', #828, 1000.000000000000000 ) ;
#465 = ORIENTED_EDGE ( 'NONE', *, *, #78, .T. ) ;
#466 = CC_DESIGN_APPROVAL ( #649, ( #29 ) ) ;
#467 = ADVANCED_FACE ( 'NONE', ( #1005 ), #916, .F. ) ;
#468 = SHAPE_DEFINITION_REPRESENTATION ( #1113, #259 ) ;
#469 = CARTESIAN_POINT ( 'NONE',  ( -2.899598533506650089, -1.499650898701433643, 0.000000000000000000 ) ) ;
#470 = DIRECTION ( 'NONE',  ( 0.000000000000000000, -0.000000000000000000, 1.000000000000000000 ) ) ;
#471 = EDGE_LOOP ( 'NONE', ( #1082, #193, #369, #618 ) ) ;
#472 = EDGE_CURVE ( 'NONE', #715, #431, #383, .T. ) ;
#473 = CARTESIAN_POINT ( 'NONE',  ( -0.8476502914506623965, 0.3636433694919364856, 1.500000000000000000 ) ) ;
#474 = CARTESIAN_POINT ( 'NONE',  ( 0.7639268976790803967, -1.148739255014325611, 1.500000000000000000 ) ) ;
#475 = VERTEX_POINT ( 'NONE', #681 ) ;
#476 = APPROVAL_STATUS ( 'not_yet_approved' ) ;
#477 = EDGE_CURVE ( 'NONE', #888, #236, #945, .T. ) ;
#478 = CARTESIAN_POINT ( 'NONE',  ( -2.899598533506650089, -1.499650898701433643, 0.000000000000000000 ) ) ;
#479 = LINE ( 'NONE', #755, #1002 ) ;
#480 = VECTOR ( 'NONE', #242, 1000.000000000000000 ) ;
#481 = VECTOR ( 'NONE', #614, 1000.000000000000000 ) ;
#482 = ORIENTED_EDGE ( 'NONE', *, *, #1084, .T. ) ;
#483 = VECTOR ( 'NONE', #1026, 1000.000000000000000 ) ;
#484 = LOCAL_TIME ( 15, 33, 24.00000000000000000, #645 ) ;
#485 = CARTESIAN_POINT ( 'NONE',  ( 2.649598533506649645, -1.499650898701433643, 0.000000000000000000 ) ) ;
#486 = CARTESIAN_POINT ( 'NONE',  ( -2.899598533506650089, 1.499650898701433643, 1.500000000000000000 ) ) ;
#487 = ADVANCED_FACE ( 'NONE', ( #768 ), #951, .F. ) ;
#488 = VERTEX_POINT ( 'NONE', #264 ) ;
#489 = EDGE_LOOP ( 'NONE', ( #906, #449, #237, #714 ) ) ;
#490 = FACE_OUTER_BOUND ( 'NONE', #203, .T. ) ;
#491 = DIRECTION ( 'NONE',  ( 0.000000000000000000, -0.000000000000000000, -1.000000000000000000 ) ) ;
#492 = EDGE_CURVE ( 'NONE', #236, #475, #910, .T. ) ;
#493 = LINE ( 'NONE', #848, #1000 ) ;
#494 = CARTESIAN_POINT ( 'NONE',  ( -0.6476502914506622188, 0.5636433694919364967, 1.800000000000000044 ) ) ;
#495 = CARTESIAN_POINT ( 'NONE',  ( -3.499598533506649733, 2.099650898701433732, 9.662284923264962799 ) ) ;
#496 = CARTESIAN_POINT ( 'NONE',  ( 2.725445522320916414, 0.9487392550143274317, 1.500000000000000000 ) ) ;
#497 = AXIS2_PLACEMENT_3D ( 'NONE', #830, #568, #152 ) ;
#498 = VECTOR ( 'NONE', #1093, 1000.000000000000000 ) ;
#499 = AXIS2_PLACEMENT_3D ( 'NONE', #263, #508, #153 ) ;
#500 = CYLINDRICAL_SURFACE ( 'NONE', #499, 0.2500000000000002220 ) ;
#501 = DIRECTION ( 'NONE',  ( -1.000000000000000000, 0.000000000000000000, 0.000000000000000000 ) ) ;
#502 = DIRECTION ( 'NONE',  ( -1.000000000000000000, 0.000000000000000000, 0.000000000000000000 ) ) ;
#503 = ADVANCED_FACE ( 'NONE', ( #1040 ), #960, .F. ) ;
#504 = DIRECTION ( 'NONE',  ( -0.000000000000000000, -0.000000000000000000, -1.000000000000000000 ) ) ;
#505 = VERTEX_POINT ( 'NONE', #161 ) ;
#506 = CARTESIAN_POINT ( 'NONE',  ( 0.9639268976790804633, -0.9487392550143256553, 1.800000000000000044 ) ) ;
#507 = DIRECTION ( 'NONE',  ( -0.000000000000000000, -0.000000000000000000, -1.000000000000000000 ) ) ;
#508 = DIRECTION ( 'NONE',  ( -0.000000000000000000, -0.000000000000000000, -1.000000000000000000 ) ) ;
#509 = DIRECTION ( 'NONE',  ( 0.000000000000000000, 0.000000000000000000, -1.000000000000000000 ) ) ;
#510 = EDGE_CURVE ( 'NONE', #823, #108, #341, .T. ) ;
#511 = LINE ( 'NONE', #251, #816 ) ;
#512 = VECTOR ( 'NONE', #1072, 1000.000000000000000 ) ;
#513 = AXIS2_PLACEMENT_3D ( 'NONE', #478, #35, #754 ) ;
#514 = DIRECTION ( 'NONE',  ( 0.000000000000000000, 0.000000000000000000, -1.000000000000000000 ) ) ;
#515 = AXIS2_PLACEMENT_3D ( 'NONE', #660, #559, #733 ) ;
#516 = CARTESIAN_POINT ( 'NONE',  ( -2.136920708549337800, 0.5636433694919364967, 1.500000000000000000 ) ) ;
#517 = ADVANCED_FACE ( 'NONE', ( #781 ), #71, .F. ) ;
#518 = LINE ( 'NONE', #167, #606 ) ;
#519 = VERTEX_POINT ( 'NONE', #83 ) ;
#520 = DIRECTION ( 'NONE',  ( -1.000000000000000000, 0.000000000000000000, 0.000000000000000000 ) ) ;
#521 = CARTESIAN_POINT ( 'NONE',  ( -0.6476502914506622188, 0.5636433694919364967, 1.500000000000000000 ) ) ;
#522 = EDGE_CURVE ( 'NONE', #451, #37, #982, .T. ) ;
#523 =( LENGTH_UNIT ( ) NAMED_UNIT ( * ) SI_UNIT ( .MILLI., .METRE. ) );
#524 = CARTESIAN_POINT ( 'NONE',  ( -0.8476502914506623965, 0.3636433694919364856, 1.800000000000000044 ) ) ;
#525 = DESIGN_CONTEXT ( 'detailed design', #1085, 'design' ) ;
#526 = DIRECTION ( 'NONE',  ( 1.000000000000000000, 0.000000000000000000, -0.000000000000000000 ) ) ;
#527 = VERTEX_POINT ( 'NONE', #1139 ) ;
#528 = AXIS2_PLACEMENT_3D ( 'NONE', #539, #205, #701 ) ;
#529 = EDGE_LOOP ( 'NONE', ( #738, #296, #450, #189 ) ) ;
#530 = LINE ( 'NONE', #364, #1134 ) ;
#531 = VECTOR ( 'NONE', #350, 1000.000000000000000 ) ;
#532 = VERTEX_POINT ( 'NONE', #1124 ) ;
#533 = DIRECTION ( 'NONE',  ( -1.000000000000000000, -0.000000000000000000, -0.000000000000000000 ) ) ;
#534 = ORIENTED_EDGE ( 'NONE', *, *, #321, .T. ) ;
#535 = ORIENTED_EDGE ( 'NONE', *, *, #1006, .T. ) ;
#536 = LINE ( 'NONE', #987, #727 ) ;
#537 = EDGE_CURVE ( 'NONE', #986, #813, #964, .T. ) ;
#538 = ORIENTED_EDGE ( 'NONE', *, *, #447, .F. ) ;
#539 = CARTESIAN_POINT ( 'NONE',  ( -2.899598533506650089, -1.499650898701433643, 9.662284923264962799 ) ) ;
#540 = ORIENTED_EDGE ( 'NONE', *, *, #856, .T. ) ;
#541 = PLANE ( 'NONE',  #49 ) ;
#542 = VERTEX_POINT ( 'NONE', #941 ) ;
#543 = PERSON_AND_ORGANIZATION_ROLE ( 'classification_officer' ) ;
#544 = CARTESIAN_POINT ( 'NONE',  ( 0.7639268976790800636, 1.148739255014327387, 1.800000000000000044 ) ) ;
#545 = LINE ( 'NONE', #979, #512 ) ;
#546 = ADVANCED_FACE ( 'NONE', ( #89 ), #329, .F. ) ;
#547 = ORIENTED_EDGE ( 'NONE', *, *, #861, .F. ) ;
#548 = EDGE_LOOP ( 'NONE', ( #949, #93, #247, #1130 ) ) ;
#549 = CALENDAR_DATE ( 2025, 17, 10 ) ;
#550 = VERTEX_POINT ( 'NONE', #249 ) ;
#551 = CIRCLE ( 'NONE', #572, 0.2500000000000002220 ) ;
#552 = PLANE ( 'NONE',  #1054 ) ;
#553 = CIRCLE ( 'NONE', #373, 0.2500000000000002220 ) ;
#554 = ORIENTED_EDGE ( 'NONE', *, *, #55, .T. ) ;
#555 = DIRECTION ( 'NONE',  ( -1.000000000000000000, -0.000000000000000000, -0.000000000000000000 ) ) ;
#556 = CIRCLE ( 'NONE', #795, 0.2000000000000000944 ) ;
#557 = EDGE_CURVE ( 'NONE', #532, #62, #587, .T. ) ;
#558 = EDGE_LOOP ( 'NONE', ( #717, #58, #34, #137, #695, #729, #293, #740 ) ) ;
#559 = DIRECTION ( 'NONE',  ( 1.000000000000000000, 3.775276827192547836E-16, 0.000000000000000000 ) ) ;
#560 = ORIENTED_EDGE ( 'NONE', *, *, #120, .F. ) ;
#561 = CARTESIAN_POINT ( 'NONE',  ( -2.136920708549337800, 0.5636433694919364967, -0.0009999999999999158867 ) ) ;
#562 = DIRECTION ( 'NONE',  ( -1.000000000000000000, 0.000000000000000000, 0.000000000000000000 ) ) ;
#563 = CC_DESIGN_PERSON_AND_ORGANIZATION_ASSIGNMENT ( #301, #741, ( #29 ) ) ;
#564 = PERSON_AND_ORGANIZATION_ROLE ( 'design_supplier' ) ;
#565 = ORIENTED_EDGE ( 'NONE', *, *, #343, .F. ) ;
#566 = CARTESIAN_POINT ( 'NONE',  ( -1.936920708549337622, -0.3636433694919364856, 1.800000000000000044 ) ) ;
#567 = LINE ( 'NONE', #929, #573 ) ;
#568 = DIRECTION ( 'NONE',  ( -1.000000000000000000, -1.415728810197205315E-16, 0.000000000000000000 ) ) ;
#569 = EDGE_CURVE ( 'NONE', #642, #983, #957, .T. ) ;
#570 = CARTESIAN_POINT ( 'NONE',  ( 2.899598533506650089, -1.499650898701433643, 9.662284923264962799 ) ) ;
#571 = DIRECTION ( 'NONE',  ( -0.000000000000000000, -0.000000000000000000, 1.000000000000000000 ) ) ;
#572 = AXIS2_PLACEMENT_3D ( 'NONE', #435, #190, #972 ) ;
#573 = VECTOR ( 'NONE', #925, 1000.000000000000000 ) ;
#574 = ORIENTED_EDGE ( 'NONE', *, *, #641, .F. ) ;
#575 = AXIS2_PLACEMENT_3D ( 'NONE', #691, #504, #684 ) ;
#576 = ORIENTED_EDGE ( 'NONE', *, *, #105, .T. ) ;
#577 = LOCAL_TIME ( 15, 33, 24.00000000000000000, #44 ) ;
#578 = CARTESIAN_POINT ( 'NONE',  ( -2.136920708549337800, -0.5636433694919364967, 1.500000000000000000 ) ) ;
#579 = CARTESIAN_POINT ( 'NONE',  ( -2.136920708549337800, -0.5636433694919364967, -0.0009999999999999158867 ) ) ;
#580 = ORIENTED_EDGE ( 'NONE', *, *, #675, .T. ) ;
#581 = LINE ( 'NONE', #1131, #224 ) ;
#582 = PLANE ( 'NONE',  #889 ) ;
#583 = EDGE_CURVE ( 'NONE', #31, #1088, #309, .T. ) ;
#584 = EDGE_LOOP ( 'NONE', ( #921, #459, #700, #902 ) ) ;
#585 = CARTESIAN_POINT ( 'NONE',  ( 0.9639268976790804633, -0.9487392550143256553, 1.500000000000000000 ) ) ;
#586 = ORIENTED_EDGE ( 'NONE', *, *, #85, .T. ) ;
#587 = LINE ( 'NONE', #154, #84 ) ;
#588 = DIRECTION ( 'NONE',  ( -1.000000000000000000, 0.000000000000000000, 0.000000000000000000 ) ) ;
#589 = VECTOR ( 'NONE', #265, 1000.000000000000000 ) ;
#590 = ADVANCED_FACE ( 'NONE', ( #170 ), #582, .F. ) ;
#591 = AXIS2_PLACEMENT_3D ( 'NONE', #771, #1028, #501 ) ;
#592 = SECURITY_CLASSIFICATION ( '', '', #1103 ) ;
#593 = CARTESIAN_POINT ( 'NONE',  ( 0.7639268976790803967, -0.9487392550143255443, 1.500000000000000000 ) ) ;
#594 = FACE_OUTER_BOUND ( 'NONE', #821, .T. ) ;
#595 = DIRECTION ( 'NONE',  ( -0.000000000000000000, 0.000000000000000000, -1.000000000000000000 ) ) ;
#596 = ORIENTED_EDGE ( 'NONE', *, *, #386, .T. ) ;
#597 = ADVANCED_FACE ( 'NONE', ( #75 ), #336, .F. ) ;
#598 = CARTESIAN_POINT ( 'NONE',  ( -0.6476502914506622188, 0.3636433694919364856, 1.500000000000000000 ) ) ;
#599 = CARTESIAN_POINT ( 'NONE',  ( 0.7639268976790800636, 1.148739255014327387, 1.800000000000000044 ) ) ;
#600 = PLANE ( 'NONE',  #121 ) ;
#601 = FACE_BOUND ( 'NONE', #843, .T. ) ;
#602 = ADVANCED_FACE ( 'NONE', ( #594 ), #188, .F. ) ;
#603 = CARTESIAN_POINT ( 'NONE',  ( -1.936920708549337622, 0.3636433694919364856, 1.500000000000000000 ) ) ;
#604 = LINE ( 'NONE', #162, #831 ) ;
#605 = VECTOR ( 'NONE', #171, 1000.000000000000000 ) ;
#606 = VECTOR ( 'NONE', #2, 1000.000000000000000 ) ;
#607 = VECTOR ( 'NONE', #394, 1000.000000000000000 ) ;
#608 = CARTESIAN_POINT ( 'NONE',  ( -2.899598533506650089, -1.499650898701433643, 1.499999999999999556 ) ) ;
#609 = AXIS2_PLACEMENT_3D ( 'NONE', #1014, #737, #1104 ) ;
#610 = CARTESIAN_POINT ( 'NONE',  ( 2.899598533506650089, -1.249650898701433643, 1.500000000000000000 ) ) ;
#611 = DIRECTION ( 'NONE',  ( -0.000000000000000000, -1.000000000000000000, -0.000000000000000000 ) ) ;
#612 = ORIENTED_EDGE ( 'NONE', *, *, #192, .T. ) ;
#613 = ORIENTED_EDGE ( 'NONE', *, *, #736, .T. ) ;
#614 = DIRECTION ( 'NONE',  ( -0.000000000000000000, -0.000000000000000000, -1.000000000000000000 ) ) ;
#615 = FACE_OUTER_BOUND ( 'NONE', #400, .T. ) ;
#616 = EDGE_LOOP ( 'NONE', ( #4, #215, #1018, #707, #117, #165, #1062, #1102 ) ) ;
#617 = ORIENTED_EDGE ( 'NONE', *, *, #841, .F. ) ;
#618 = ORIENTED_EDGE ( 'NONE', *, *, #694, .T. ) ;
#619 = VERTEX_POINT ( 'NONE', #441 ) ;
#620 = DIRECTION ( 'NONE',  ( -0.000000000000000000, 0.000000000000000000, 1.000000000000000000 ) ) ;
#621 = DIRECTION ( 'NONE',  ( 0.000000000000000000, -0.000000000000000000, 1.000000000000000000 ) ) ;
#622 = ORIENTED_EDGE ( 'NONE', *, *, #537, .T. ) ;
#623 = EDGE_CURVE ( 'NONE', #974, #813, #354, .T. ) ;
#624 = LINE ( 'NONE', #966, #965 ) ;
#625 = AXIS2_PLACEMENT_3D ( 'NONE', #427, #1047, #588 ) ;
#626 = AXIS2_PLACEMENT_3D ( 'NONE', #988, #112, #27 ) ;
#627 = FACE_OUTER_BOUND ( 'NONE', #471, .T. ) ;
#628 = CIRCLE ( 'NONE', #761, 0.2000000000000000944 ) ;
#629 = CARTESIAN_POINT ( 'NONE',  ( -2.899598533506650089, 1.499650898701433643, 0.000000000000000000 ) ) ;
#630 = ORIENTED_EDGE ( 'NONE', *, *, #1038, .F. ) ;
#631 = CC_DESIGN_PERSON_AND_ORGANIZATION_ASSIGNMENT ( #216, #133, ( #425 ) ) ;
#632 = DIRECTION ( 'NONE',  ( 0.000000000000000000, 0.000000000000000000, 1.000000000000000000 ) ) ;
#633 = ORIENTED_EDGE ( 'NONE', *, *, #975, .F. ) ;
#634 = DIRECTION ( 'NONE',  ( 1.415728810197205315E-16, -1.000000000000000000, 0.000000000000000000 ) ) ;
#635 = DIRECTION ( 'NONE',  ( -0.000000000000000000, -0.000000000000000000, -1.000000000000000000 ) ) ;
#636 = ORIENTED_EDGE ( 'NONE', *, *, #239, .T. ) ;
#637 = VERTEX_POINT ( 'NONE', #610 ) ;
#638 = PERSON_AND_ORGANIZATION ( #398, #819 ) ;
#639 = ORIENTED_EDGE ( 'NONE', *, *, #762, .F. ) ;
#640 = FACE_OUTER_BOUND ( 'NONE', #11, .T. ) ;
#641 = EDGE_CURVE ( 'NONE', #619, #488, #726, .T. ) ;
#642 = VERTEX_POINT ( 'NONE', #446 ) ;
#643 = CARTESIAN_POINT ( 'NONE',  ( 2.725445522320916414, 0.9487392550143274317, 1.800000000000000044 ) ) ;
#644 = ORIENTED_EDGE ( 'NONE', *, *, #762, .T. ) ;
#645 = COORDINATED_UNIVERSAL_TIME_OFFSET ( 1, 0, .AHEAD. ) ;
#646 = VECTOR ( 'NONE', #595, 1000.000000000000000 ) ;
#647 = DIRECTION ( 'NONE',  ( 0.000000000000000000, 0.000000000000000000, 1.000000000000000000 ) ) ;
#648 = VECTOR ( 'NONE', #405, 1000.000000000000000 ) ;
#649 = APPROVAL ( #476, 'UNSPECIFIED' ) ;
#650 = LINE ( 'NONE', #65, #648 ) ;
#651 = CC_DESIGN_SECURITY_CLASSIFICATION ( #592, ( #425 ) ) ;
#652 = EDGE_LOOP ( 'NONE', ( #804, #279, #295, #895 ) ) ;
#653 = DATE_AND_TIME ( #39, #871 ) ;
#654 = DIRECTION ( 'NONE',  ( -1.000000000000000000, 0.000000000000000000, 0.000000000000000000 ) ) ;
#655 = CARTESIAN_POINT ( 'NONE',  ( 2.649598533506649645, 1.499650898701433865, 1.500999999999999668 ) ) ;
#656 = VERTEX_POINT ( 'NONE', #92 ) ;
#657 = ADVANCED_FACE ( 'NONE', ( #993 ), #967, .F. ) ;
#658 = DATE_AND_TIME ( #549, #484 ) ;
#659 = ORIENTED_EDGE ( 'NONE', *, *, #1044, .F. ) ;
#660 = CARTESIAN_POINT ( 'NONE',  ( 2.725445522320916414, 1.148739255014327387, -0.0009999999999999158867 ) ) ;
#661 = ORIENTED_EDGE ( 'NONE', *, *, #1013, .F. ) ;
#662 = CARTESIAN_POINT ( 'NONE',  ( 0.7639268976790800636, 0.9487392550143273207, 1.800000000000000044 ) ) ;
#663 = CARTESIAN_POINT ( 'NONE',  ( 3.499598533506649733, 2.099650898701433732, 1.800000000000000044 ) ) ;
#664 = ORIENTED_EDGE ( 'NONE', *, *, #876, .F. ) ;
#665 = ORIENTED_EDGE ( 'NONE', *, *, #212, .T. ) ;
#666 = EDGE_CURVE ( 'NONE', #389, #146, #903, .T. ) ;
#667 = EDGE_LOOP ( 'NONE', ( #868, #330, #20, #753 ) ) ;
#668 = DIRECTION ( 'NONE',  ( -1.000000000000000000, 0.000000000000000000, 0.000000000000000000 ) ) ;
#669 = CARTESIAN_POINT ( 'NONE',  ( -3.149598533506650089, 1.499650898701433643, 1.500000000000000000 ) ) ;
#670 = CIRCLE ( 'NONE', #625, 0.2500000000000002220 ) ;
#671 = VECTOR ( 'NONE', #230, 1000.000000000000000 ) ;
#672 = CARTESIAN_POINT ( 'NONE',  ( -2.649598533506649645, -1.499650898701433643, 1.500000000000000000 ) ) ;
#673 = VECTOR ( 'NONE', #77, 1000.000000000000000 ) ;
#674 = DIRECTION ( 'NONE',  ( -0.000000000000000000, 1.000000000000000000, -0.000000000000000000 ) ) ;
#675 = EDGE_CURVE ( 'NONE', #384, #40, #238, .T. ) ;
#676 = ORIENTED_EDGE ( 'NONE', *, *, #45, .T. ) ;
#677 = DIRECTION ( 'NONE',  ( -1.000000000000000000, 0.000000000000000000, 0.000000000000000000 ) ) ;
#678 = ORIENTED_EDGE ( 'NONE', *, *, #432, .F. ) ;
#679 = LINE ( 'NONE', #860, #483 ) ;
#680 = VERTEX_POINT ( 'NONE', #706 ) ;
#681 = CARTESIAN_POINT ( 'NONE',  ( -2.136920708549337800, 0.3636433694919364856, 1.500000000000000000 ) ) ;
#682 = ADVANCED_FACE ( 'NONE', ( #6 ), #878, .T. ) ;
#683 = CARTESIAN_POINT ( 'NONE',  ( 2.899598533506650089, 1.249650898701433865, 0.000000000000000000 ) ) ;
#684 = DIRECTION ( 'NONE',  ( -1.000000000000000000, 0.000000000000000000, 0.000000000000000000 ) ) ;
#685 = CARTESIAN_POINT ( 'NONE',  ( -3.499598533506649733, -2.099650898701433732, 9.662284923264962799 ) ) ;
#686 = ADVANCED_FACE ( 'NONE', ( #106 ), #118, .F. ) ;
#687 = CARTESIAN_POINT ( 'NONE',  ( 2.899598533506650089, 1.499650898701433865, 1.500999999999999668 ) ) ;
#688 = CIRCLE ( 'NONE', #68, 0.2000000000000000944 ) ;
#689 = VECTOR ( 'NONE', #303, 1000.000000000000000 ) ;
#690 = EDGE_LOOP ( 'NONE', ( #933, #116, #406, #1048 ) ) ;
#691 = CARTESIAN_POINT ( 'NONE',  ( -2.899598533506650089, 1.499650898701433643, 1.500999999999999668 ) ) ;
#692 = DIRECTION ( 'NONE',  ( -1.000000000000000000, -0.000000000000000000, -0.000000000000000000 ) ) ;
#693 = CARTESIAN_POINT ( 'NONE',  ( 0.9639268976790804633, -1.148739255014325611, 1.800000000000000044 ) ) ;
#694 = EDGE_CURVE ( 'NONE', #888, #210, #711, .T. ) ;
#695 = ORIENTED_EDGE ( 'NONE', *, *, #472, .T. ) ;
#696 = DIRECTION ( 'NONE',  ( -0.000000000000000000, -0.000000000000000000, 1.000000000000000000 ) ) ;
#697 = DIRECTION ( 'NONE',  ( 0.000000000000000000, 0.000000000000000000, -1.000000000000000000 ) ) ;
#698 = CARTESIAN_POINT ( 'NONE',  ( -2.899598533506650089, -1.499650898701433643, 1.499999999999999556 ) ) ;
#699 = EDGE_CURVE ( 'NONE', #182, #66, #810, .T. ) ;
#700 = ORIENTED_EDGE ( 'NONE', *, *, #569, .F. ) ;
#701 = DIRECTION ( 'NONE',  ( 0.000000000000000000, 0.000000000000000000, -1.000000000000000000 ) ) ;
#702 = CYLINDRICAL_SURFACE ( 'NONE', #407, 0.2500000000000002220 ) ;
#703 = ORIENTED_EDGE ( 'NONE', *, *, #522, .F. ) ;
#704 = CIRCLE ( 'NONE', #198, 0.2000000000000000944 ) ;
#705 = AXIS2_PLACEMENT_3D ( 'NONE', #147, #46, #59 ) ;
#706 = CARTESIAN_POINT ( 'NONE',  ( 2.649598533506649645, 1.499650898701433865, 0.000000000000000000 ) ) ;
#707 = ORIENTED_EDGE ( 'NONE', *, *, #841, .T. ) ;
#708 = PLANE ( 'NONE',  #907 ) ;
#709 = EDGE_LOOP ( 'NONE', ( #1008, #756, #1015, #300 ) ) ;
#710 = ORIENTED_EDGE ( 'NONE', *, *, #510, .T. ) ;
#711 = LINE ( 'NONE', #1, #267 ) ;
#712 = EDGE_CURVE ( 'NONE', #210, #844, #688, .T. ) ;
#713 = DIRECTION ( 'NONE',  ( -1.000000000000000000, 0.000000000000000000, 0.000000000000000000 ) ) ;
#714 = ORIENTED_EDGE ( 'NONE', *, *, #326, .F. ) ;
#715 = VERTEX_POINT ( 'NONE', #787 ) ;
#716 = FACE_OUTER_BOUND ( 'NONE', #896, .T. ) ;
#717 = ORIENTED_EDGE ( 'NONE', *, *, #366, .T. ) ;
#718 = ORIENTED_EDGE ( 'NONE', *, *, #772, .F. ) ;
#719 = DIRECTION ( 'NONE',  ( -3.775276827192547836E-16, 1.000000000000000000, -0.000000000000000000 ) ) ;
#720 = CARTESIAN_POINT ( 'NONE',  ( 2.525445522320916236, 0.9487392550143273207, 1.800000000000000044 ) ) ;
#721 = ORIENTED_EDGE ( 'NONE', *, *, #492, .F. ) ;
#722 = VERTEX_POINT ( 'NONE', #274 ) ;
#723 = EDGE_CURVE ( 'NONE', #66, #788, #704, .T. ) ;
#724 = CARTESIAN_POINT ( 'NONE',  ( 0.9639268976790801302, 0.9487392550143273207, -0.0009999999999999158867 ) ) ;
#725 = AXIS2_PLACEMENT_3D ( 'NONE', #685, #1034, #256 ) ;
#726 = LINE ( 'NONE', #13, #32 ) ;
#727 = VECTOR ( 'NONE', #897, 1000.000000000000000 ) ;
#728 = DIRECTION ( 'NONE',  ( -0.000000000000000000, 1.000000000000000000, 0.000000000000000000 ) ) ;
#729 = ORIENTED_EDGE ( 'NONE', *, *, #849, .T. ) ;
#730 = ORIENTED_EDGE ( 'NONE', *, *, #321, .F. ) ;
#731 = EDGE_CURVE ( 'NONE', #475, #31, #21, .T. ) ;
#732 = DATE_TIME_ROLE ( 'classification_date' ) ;
#733 = DIRECTION ( 'NONE',  ( -3.775276827192547836E-16, 1.000000000000000000, 0.000000000000000000 ) ) ;
#734 = CARTESIAN_POINT ( 'NONE',  ( 2.899598533506650089, 1.249650898701433865, 1.499999999999999556 ) ) ;
#735 = ORIENTED_EDGE ( 'NONE', *, *, #269, .F. ) ;
#736 = EDGE_CURVE ( 'NONE', #367, #519, #99, .T. ) ;
#737 = DIRECTION ( 'NONE',  ( -0.000000000000000000, -0.000000000000000000, 1.000000000000000000 ) ) ;
#738 = ORIENTED_EDGE ( 'NONE', *, *, #806, .F. ) ;
#739 = LINE ( 'NONE', #744, #946 ) ;
#740 = ORIENTED_EDGE ( 'NONE', *, *, #723, .T. ) ;
#741 = PERSON_AND_ORGANIZATION_ROLE ( 'creator' ) ;
#742 = DIRECTION ( 'NONE',  ( -1.000000000000000000, 0.000000000000000000, 0.000000000000000000 ) ) ;
#743 = AXIS2_PLACEMENT_3D ( 'NONE', #865, #509, #677 ) ;
#744 = CARTESIAN_POINT ( 'NONE',  ( 2.525445522320916236, 1.148739255014327387, 1.800000000000000044 ) ) ;
#745 = EDGE_CURVE ( 'NONE', #460, #325, #530, .T. ) ;
#746 = AXIS2_PLACEMENT_3D ( 'NONE', #433, #632, #172 ) ;
#747 = EDGE_LOOP ( 'NONE', ( #1067, #890, #710, #981 ) ) ;
#748 = PERSON_AND_ORGANIZATION ( #398, #819 ) ;
#749 = DIRECTION ( 'NONE',  ( -0.000000000000000000, -0.000000000000000000, 1.000000000000000000 ) ) ;
#750 = LINE ( 'NONE', #842, #440 ) ;
#751 = ADVANCED_FACE ( 'NONE', ( #627 ), #899, .F. ) ;
#752 = EDGE_LOOP ( 'NONE', ( #1122, #560, #128, #194 ) ) ;
#753 = ORIENTED_EDGE ( 'NONE', *, *, #955, .F. ) ;
#754 = DIRECTION ( 'NONE',  ( -1.000000000000000000, 0.000000000000000000, 0.000000000000000000 ) ) ;
#755 = CARTESIAN_POINT ( 'NONE',  ( -3.499598533506649733, 2.099650898701433732, 9.662284923264962799 ) ) ;
#756 = ORIENTED_EDGE ( 'NONE', *, *, #1019, .F. ) ;
#757 = DIRECTION ( 'NONE',  ( -1.000000000000000000, 0.000000000000000000, 0.000000000000000000 ) ) ;
#758 = CARTESIAN_POINT ( 'NONE',  ( -1.936920708549337622, -0.5636433694919364967, 1.500000000000000000 ) ) ;
#759 = AXIS2_PLACEMENT_3D ( 'NONE', #506, #697, #1046 ) ;
#760 = ORIENTED_EDGE ( 'NONE', *, *, #583, .F. ) ;
#761 = AXIS2_PLACEMENT_3D ( 'NONE', #473, #382, #824 ) ;
#762 = EDGE_CURVE ( 'NONE', #96, #542, #353, .T. ) ;
#763 = LINE ( 'NONE', #956, #776 ) ;
#764 = DIRECTION ( 'NONE',  ( -1.000000000000000000, 0.000000000000000000, 0.000000000000000000 ) ) ;
#765 = CARTESIAN_POINT ( 'NONE',  ( -2.899598533506650089, -1.499650898701433643, 0.000000000000000000 ) ) ;
#766 = LINE ( 'NONE', #1121, #1036 ) ;
#767 = CC_DESIGN_DATE_AND_TIME_ASSIGNMENT ( #653, #139, ( #29 ) ) ;
#768 = FACE_OUTER_BOUND ( 'NONE', #1043, .T. ) ;
#769 = DIRECTION ( 'NONE',  ( -0.000000000000000000, -0.000000000000000000, -1.000000000000000000 ) ) ;
#770 = CARTESIAN_POINT ( 'NONE',  ( 0.9639268976790801302, 0.9487392550143273207, 1.500000000000000000 ) ) ;
#771 = CARTESIAN_POINT ( 'NONE',  ( -1.936920708549337622, 0.3636433694919364856, 1.800000000000000044 ) ) ;
#772 = EDGE_CURVE ( 'NONE', #542, #1094, #928, .T. ) ;
#773 = DIRECTION ( 'NONE',  ( 0.000000000000000000, 0.000000000000000000, 1.000000000000000000 ) ) ;
#774 = VECTOR ( 'NONE', #773, 1000.000000000000000 ) ;
#775 = VECTOR ( 'NONE', #80, 1000.000000000000000 ) ;
#776 = VECTOR ( 'NONE', #1039, 1000.000000000000000 ) ;
#777 = DIRECTION ( 'NONE',  ( 0.000000000000000000, 0.000000000000000000, -1.000000000000000000 ) ) ;
#778 = DIRECTION ( 'NONE',  ( -1.000000000000000000, 0.000000000000000000, 0.000000000000000000 ) ) ;
#779 = DIRECTION ( 'NONE',  ( 1.415728810197205315E-16, -1.000000000000000000, 0.000000000000000000 ) ) ;
#780 = CARTESIAN_POINT ( 'NONE',  ( -2.899598533506650089, -1.249650898701433199, 0.000000000000000000 ) ) ;
#781 = FACE_OUTER_BOUND ( 'NONE', #489, .T. ) ;
#782 = CARTESIAN_POINT ( 'NONE',  ( 2.649598533506650089, -1.499650898701433643, 1.500999999999999668 ) ) ;
#783 = ORIENTED_EDGE ( 'NONE', *, *, #250, .T. ) ;
#784 = ADVANCED_FACE ( 'NONE', ( #229 ), #397, .T. ) ;
#785 = CARTESIAN_POINT ( 'NONE',  ( -1.936920708549337622, 0.3636433694919364856, -0.0009999999999999158867 ) ) ;
#786 = ORIENTED_EDGE ( 'NONE', *, *, #745, .T. ) ;
#787 = CARTESIAN_POINT ( 'NONE',  ( 0.9639268976790804633, -1.148739255014325611, 1.500000000000000000 ) ) ;
#788 = VERTEX_POINT ( 'NONE', #323 ) ;
#789 = CARTESIAN_POINT ( 'NONE',  ( 0.000000000000000000, 0.000000000000000000, 1.500000000000000000 ) ) ;
#790 = ORIENTED_EDGE ( 'NONE', *, *, #1019, .T. ) ;
#791 = CIRCLE ( 'NONE', #196, 0.2000000000000000944 ) ;
#792 = ORIENTED_EDGE ( 'NONE', *, *, #246, .F. ) ;
#793 = VECTOR ( 'NONE', #874, 1000.000000000000000 ) ;
#794 = ORIENTED_EDGE ( 'NONE', *, *, #447, .T. ) ;
#795 = AXIS2_PLACEMENT_3D ( 'NONE', #566, #1004, #654 ) ;
#796 = APPLICATION_PROTOCOL_DEFINITION ( 'international standard', 'config_control_design', 1994, #1085 ) ;
#797 = ADVANCED_FACE ( 'NONE', ( #378 ), #135, .F. ) ;
#798 = DIRECTION ( 'NONE',  ( -1.000000000000000000, 0.000000000000000000, 0.000000000000000000 ) ) ;
#799 = FACE_BOUND ( 'NONE', #616, .T. ) ;
#800 = ORIENTED_EDGE ( 'NONE', *, *, #569, .T. ) ;
#801 = ORIENTED_EDGE ( 'NONE', *, *, #73, .T. ) ;
#802 = ORIENTED_EDGE ( 'NONE', *, *, #557, .F. ) ;
#803 = DIRECTION ( 'NONE',  ( 0.000000000000000000, 0.000000000000000000, -1.000000000000000000 ) ) ;
#804 = ORIENTED_EDGE ( 'NONE', *, *, #849, .F. ) ;
#805 = CARTESIAN_POINT ( 'NONE',  ( 2.725445522320916414, 1.148739255014327387, 1.500000000000000000 ) ) ;
#806 = EDGE_CURVE ( 'NONE', #423, #146, #240, .T. ) ;
#807 = ORIENTED_EDGE ( 'NONE', *, *, #1123, .T. ) ;
#808 = DIRECTION ( 'NONE',  ( 1.000000000000000000, 3.739145816073775170E-17, 0.000000000000000000 ) ) ;
#809 = ORIENTED_EDGE ( 'NONE', *, *, #984, .F. ) ;
#810 = LINE ( 'NONE', #805, #1053 ) ;
#811 = CARTESIAN_POINT ( 'NONE',  ( 0.000000000000000000, 0.000000000000000000, 0.000000000000000000 ) ) ;
#812 = EDGE_CURVE ( 'NONE', #173, #888, #628, .T. ) ;
#813 = VERTEX_POINT ( 'NONE', #832 ) ;
#814 = ORIENTED_EDGE ( 'NONE', *, *, #557, .T. ) ;
#815 = CALENDAR_DATE ( 2025, 17, 10 ) ;
#816 = VECTOR ( 'NONE', #779, 1000.000000000000000 ) ;
#817 = VECTOR ( 'NONE', #692, 1000.000000000000000 ) ;
#818 = DIRECTION ( 'NONE',  ( -1.000000000000000000, 0.000000000000000000, 0.000000000000000000 ) ) ;
#819 = ORGANIZATION ( 'UNSPECIFIED', 'UNSPECIFIED', '' ) ;
#820 = DIRECTION ( 'NONE',  ( -1.000000000000000000, 0.000000000000000000, 0.000000000000000000 ) ) ;
#821 = EDGE_LOOP ( 'NONE', ( #310, #596, #783, #802 ) ) ;
#822 = APPROVAL ( #1096, 'UNSPECIFIED' ) ;
#823 = VERTEX_POINT ( 'NONE', #53 ) ;
#824 = DIRECTION ( 'NONE',  ( -1.000000000000000000, 0.000000000000000000, 0.000000000000000000 ) ) ;
#825 = CARTESIAN_POINT ( 'NONE',  ( 2.525445522320917124, -1.148739255014325611, 1.500000000000000000 ) ) ;
#826 = ORIENTED_EDGE ( 'NONE', *, *, #61, .F. ) ;
#827 = EDGE_CURVE ( 'NONE', #986, #357, #392, .T. ) ;
#828 = DIRECTION ( 'NONE',  ( 1.000000000000000000, 3.739145816073775170E-17, 0.000000000000000000 ) ) ;
#829 = CARTESIAN_POINT ( 'NONE',  ( 2.899598533506650089, 1.249650898701433643, 1.500999999999999668 ) ) ;
#830 = CARTESIAN_POINT ( 'NONE',  ( 0.7639268976790800636, 1.148739255014327387, -0.0009999999999999158867 ) ) ;
#831 = VECTOR ( 'NONE', #334, 1000.000000000000000 ) ;
#832 = CARTESIAN_POINT ( 'NONE',  ( 0.7639268976790803967, -0.9487392550143255443, 1.800000000000000044 ) ) ;
#833 = ADVANCED_FACE ( 'NONE', ( #640 ), #218, .F. ) ;
#834 = AXIS2_PLACEMENT_3D ( 'NONE', #314, #571, #131 ) ;
#835 = CARTESIAN_POINT ( 'NONE',  ( 0.7639268976790800636, 1.148739255014327387, 1.500000000000000000 ) ) ;
#836 = AXIS2_PLACEMENT_3D ( 'NONE', #1030, #248, #74 ) ;
#837 = ORIENTED_EDGE ( 'NONE', *, *, #736, .F. ) ;
#838 = PERSON_AND_ORGANIZATION ( #398, #819 ) ;
#839 = ORIENTED_EDGE ( 'NONE', *, *, #1091, .T. ) ;
#840 = CARTESIAN_POINT ( 'NONE',  ( -2.899598533506650089, -1.499650898701433643, 1.500000000000000000 ) ) ;
#841 = EDGE_CURVE ( 'NONE', #488, #423, #1023, .T. ) ;
#842 = CARTESIAN_POINT ( 'NONE',  ( -3.499598533506649733, 2.099650898701433732, 1.800000000000000044 ) ) ;
#843 = EDGE_LOOP ( 'NONE', ( #110, #278, #938, #932, #792, #299, #809, #396 ) ) ;
#844 = VERTEX_POINT ( 'NONE', #927 ) ;
#845 = CARTESIAN_POINT ( 'NONE',  ( 2.899598533506650089, -1.499650898701433643, 0.000000000000000000 ) ) ;
#846 = ORIENTED_EDGE ( 'NONE', *, *, #731, .T. ) ;
#847 = CARTESIAN_POINT ( 'NONE',  ( -0.8476502914506622854, -0.3636433694919364856, 1.500000000000000000 ) ) ;
#848 = CARTESIAN_POINT ( 'NONE',  ( 3.499598533506649733, 2.099650898701433732, 1.800000000000000044 ) ) ;
#849 = EDGE_CURVE ( 'NONE', #431, #182, #327, .T. ) ;
#850 = CARTESIAN_POINT ( 'NONE',  ( 0.7639268976790800636, 0.9487392550143273207, 1.800000000000000044 ) ) ;
#851 = VECTOR ( 'NONE', #507, 1000.000000000000000 ) ;
#852 = DIRECTION ( 'NONE',  ( 0.000000000000000000, -0.000000000000000000, -1.000000000000000000 ) ) ;
#853 = VECTOR ( 'NONE', #620, 1000.000000000000000 ) ;
#854 = AXIS2_PLACEMENT_3D ( 'NONE', #585, #696, #943 ) ;
#855 = CARTESIAN_POINT ( 'NONE',  ( 3.499598533506649733, -2.099650898701433732, 9.662284923264962799 ) ) ;
#856 = EDGE_CURVE ( 'NONE', #31, #619, #130, .T. ) ;
#857 = CARTESIAN_POINT ( 'NONE',  ( -1.936920708549337622, 0.5636433694919364967, 1.500000000000000000 ) ) ;
#858 = DIRECTION ( 'NONE',  ( 0.000000000000000000, -1.000000000000000000, 0.000000000000000000 ) ) ;
#859 = CARTESIAN_POINT ( 'NONE',  ( 0.9639268976790801302, 1.148739255014327387, 1.800000000000000044 ) ) ;
#860 = CARTESIAN_POINT ( 'NONE',  ( 0.7639268976790803967, -0.9487392550143256553, 1.500000000000000000 ) ) ;
#861 = EDGE_CURVE ( 'NONE', #532, #111, #935, .T. ) ;
#862 = DIRECTION ( 'NONE',  ( -0.000000000000000000, -0.000000000000000000, -1.000000000000000000 ) ) ;
#863 = LINE ( 'NONE', #765, #869 ) ;
#864 = DIRECTION ( 'NONE',  ( -0.000000000000000000, 0.000000000000000000, -1.000000000000000000 ) ) ;
#865 = CARTESIAN_POINT ( 'NONE',  ( 2.525445522320916236, 0.9487392550143273207, -0.0009999999999999158867 ) ) ;
#866 = ADVANCED_FACE ( 'NONE', ( #306 ), #552, .T. ) ;
#867 = DIRECTION ( 'NONE',  ( -0.000000000000000000, 1.000000000000000000, -0.000000000000000000 ) ) ;
#868 = ORIENTED_EDGE ( 'NONE', *, *, #352, .T. ) ;
#869 = VECTOR ( 'NONE', #346, 1000.000000000000000 ) ;
#870 = AXIS2_PLACEMENT_3D ( 'NONE', #424, #345, #245 ) ;
#871 = LOCAL_TIME ( 15, 33, 24.00000000000000000, #923 ) ;
#872 = ORIENTED_EDGE ( 'NONE', *, *, #1044, .T. ) ;
#873 = CYLINDRICAL_SURFACE ( 'NONE', #340, 0.2000000000000000944 ) ;
#874 = DIRECTION ( 'NONE',  ( -1.000000000000000000, 0.000000000000000000, 0.000000000000000000 ) ) ;
#875 = LINE ( 'NONE', #782, #589 ) ;
#876 = EDGE_CURVE ( 'NONE', #519, #389, #930, .T. ) ;
#877 = PLANE ( 'NONE',  #422 ) ;
#878 = PLANE ( 'NONE',  #528 ) ;
#879 = DIRECTION ( 'NONE',  ( -1.000000000000000000, 0.000000000000000000, 0.000000000000000000 ) ) ;
#880 = ORIENTED_EDGE ( 'NONE', *, *, #151, .F. ) ;
#881 = EDGE_CURVE ( 'NONE', #1074, #619, #556, .T. ) ;
#882 = EDGE_LOOP ( 'NONE', ( #56, #790, #735, #613 ) ) ;
#883 = PERSON_AND_ORGANIZATION ( #398, #819 ) ;
#884 = EDGE_LOOP ( 'NONE', ( #208, #612, #730, #380, #703, #908, #482, #217, #565, #79 ) ) ;
#885 = CARTESIAN_POINT ( 'NONE',  ( -2.136920708549337800, 0.3636433694919364856, 1.800000000000000044 ) ) ;
#886 = LINE ( 'NONE', #304, #67 ) ;
#887 = AXIS2_PLACEMENT_3D ( 'NONE', #184, #101, #879 ) ;
#888 = VERTEX_POINT ( 'NONE', #142 ) ;
#889 = AXIS2_PLACEMENT_3D ( 'NONE', #495, #858, #852 ) ;
#890 = ORIENTED_EDGE ( 'NONE', *, *, #326, .T. ) ;
#891 = CARTESIAN_POINT ( 'NONE',  ( -1.936920708549337622, -0.5636433694919364967, 1.800000000000000044 ) ) ;
#892 = EDGE_LOOP ( 'NONE', ( #576, #320, #52, #401 ) ) ;
#893 = DIRECTION ( 'NONE',  ( -0.000000000000000000, -0.000000000000000000, -1.000000000000000000 ) ) ;
#894 = FACE_OUTER_BOUND ( 'NONE', #884, .T. ) ;
#895 = ORIENTED_EDGE ( 'NONE', *, *, #973, .F. ) ;
#896 = EDGE_LOOP ( 'NONE', ( #721, #630, #760, #1025 ) ) ;
#897 = DIRECTION ( 'NONE',  ( 0.000000000000000000, 0.000000000000000000, 1.000000000000000000 ) ) ;
#898 = VERTEX_POINT ( 'NONE', #485 ) ;
#899 = PLANE ( 'NONE',  #626 ) ;
#900 = EDGE_CURVE ( 'NONE', #292, #451, #1136, .T. ) ;
#901 = CARTESIAN_POINT ( 'NONE',  ( -2.899598533506650089, -1.249650898701433199, 1.499999999999999556 ) ) ;
#902 = ORIENTED_EDGE ( 'NONE', *, *, #239, .F. ) ;
#903 = LINE ( 'NONE', #434, #481 ) ;
#904 = EDGE_CURVE ( 'NONE', #1074, #389, #385, .T. ) ;
#905 = CARTESIAN_POINT ( 'NONE',  ( -2.136920708549337800, 0.5636433694919364967, 1.800000000000000044 ) ) ;
#906 = ORIENTED_EDGE ( 'NONE', *, *, #723, .F. ) ;
#907 = AXIS2_PLACEMENT_3D ( 'NONE', #1065, #36, #621 ) ;
#908 = ORIENTED_EDGE ( 'NONE', *, *, #900, .F. ) ;
#909 = APPROVAL_DATE_TIME ( #658, #1100 ) ;
#910 = CIRCLE ( 'NONE', #270, 0.2000000000000000944 ) ;
#911 = EDGE_LOOP ( 'NONE', ( #540, #22, #633, #846 ) ) ;
#912 = VECTOR ( 'NONE', #674, 1000.000000000000000 ) ;
#913 = CARTESIAN_POINT ( 'NONE',  ( 0.7639268976790803967, -1.148739255014325611, 1.800000000000000044 ) ) ;
#914 = CIRCLE ( 'NONE', #33, 0.1999999999999999833 ) ;
#915 = APPROVAL_PERSON_ORGANIZATION ( #125, #1100, #312 ) ;
#916 = PLANE ( 'NONE',  #140 ) ;
#917 = VERTEX_POINT ( 'NONE', #339 ) ;
#918 = CALENDAR_DATE ( 2025, 17, 10 ) ;
#919 = DIRECTION ( 'NONE',  ( -1.000000000000000000, 0.000000000000000000, 0.000000000000000000 ) ) ;
#920 = DIRECTION ( 'NONE',  ( -1.000000000000000000, 0.000000000000000000, -0.000000000000000000 ) ) ;
#921 = ORIENTED_EDGE ( 'NONE', *, *, #129, .F. ) ;
#922 = EDGE_CURVE ( 'NONE', #917, #940, #581, .T. ) ;
#923 = COORDINATED_UNIVERSAL_TIME_OFFSET ( 1, 0, .AHEAD. ) ;
#924 = DIRECTION ( 'NONE',  ( 0.000000000000000000, -0.000000000000000000, 1.000000000000000000 ) ) ;
#925 = DIRECTION ( 'NONE',  ( 0.000000000000000000, 0.000000000000000000, 1.000000000000000000 ) ) ;
#926 = EDGE_LOOP ( 'NONE', ( #1079, #95, #160, #103 ) ) ;
#927 = CARTESIAN_POINT ( 'NONE',  ( -0.6476502914506622188, 0.3636433694919364856, 1.800000000000000044 ) ) ;
#928 = CIRCLE ( 'NONE', #124, 0.2500000000000002220 ) ;
#929 = CARTESIAN_POINT ( 'NONE',  ( 2.899598533506650089, -1.249650898701433643, 1.500999999999999668 ) ) ;
#930 = CIRCLE ( 'NONE', #705, 0.1999999999999999833 ) ;
#931 = LOCAL_TIME ( 15, 33, 24.00000000000000000, #996 ) ;
#932 = ORIENTED_EDGE ( 'NONE', *, *, #583, .T. ) ;
#933 = ORIENTED_EDGE ( 'NONE', *, *, #472, .F. ) ;
#934 = EDGE_LOOP ( 'NONE', ( #465, #43, #219, #1092 ) ) ;
#935 = LINE ( 'NONE', #1090, #464 ) ;
#936 = CARTESIAN_POINT ( 'NONE',  ( 2.525445522320917124, -1.148739255014325611, 1.800000000000000044 ) ) ;
#937 = EDGE_CURVE ( 'NONE', #977, #715, #1003, .T. ) ;
#938 = ORIENTED_EDGE ( 'NONE', *, *, #856, .F. ) ;
#939 = CYLINDRICAL_SURFACE ( 'NONE', #575, 0.2500000000000002220 ) ;
#940 = VERTEX_POINT ( 'NONE', #416 ) ;
#941 = CARTESIAN_POINT ( 'NONE',  ( -3.149598533506650089, -1.499650898701433643, 0.000000000000000000 ) ) ;
#942 = ORIENTED_EDGE ( 'NONE', *, *, #1042, .T. ) ;
#943 = DIRECTION ( 'NONE',  ( -1.000000000000000000, 0.000000000000000000, 0.000000000000000000 ) ) ;
#944 = AXIS2_PLACEMENT_3D ( 'NONE', #720, #1080, #1059 ) ;
#945 = LINE ( 'NONE', #516, #793 ) ;
#946 = VECTOR ( 'NONE', #470, 1000.000000000000000 ) ;
#947 = CIRCLE ( 'NONE', #355, 0.1999999999999999833 ) ;
#948 = DIRECTION ( 'NONE',  ( -0.000000000000000000, -1.000000000000000000, -0.000000000000000000 ) ) ;
#949 = ORIENTED_EDGE ( 'NONE', *, *, #900, .T. ) ;
#950 = CARTESIAN_POINT ( 'NONE',  ( 2.725445522320917302, -0.9487392550143254333, 1.800000000000000044 ) ) ;
#951 = CYLINDRICAL_SURFACE ( 'NONE', #870, 0.2000000000000000944 ) ;
#952 = LINE ( 'NONE', #179, #351 ) ;
#953 = EDGE_LOOP ( 'NONE', ( #676, #538, #109, #199, #1029, #361, #284, #554, #718, #639 ) ) ;
#954 = ORIENTED_EDGE ( 'NONE', *, *, #1112, .F. ) ;
#955 = EDGE_CURVE ( 'NONE', #527, #141, #64, .T. ) ;
#956 = CARTESIAN_POINT ( 'NONE',  ( 2.725445522320916414, 0.9487392550143274317, 1.500000000000000000 ) ) ;
#957 = LINE ( 'NONE', #1127, #1075 ) ;
#958 = DIRECTION ( 'NONE',  ( -1.000000000000000000, 0.000000000000000000, 0.000000000000000000 ) ) ;
#959 = FACE_BOUND ( 'NONE', #443, .T. ) ;
#960 = PLANE ( 'NONE',  #102 ) ;
#961 = EDGE_CURVE ( 'NONE', #656, #214, #914, .T. ) ;
#962 = CARTESIAN_POINT ( 'NONE',  ( -1.936920708549337622, -0.5636433694919364967, 1.800000000000000044 ) ) ;
#963 = VECTOR ( 'NONE', #769, 1000.000000000000000 ) ;
#964 = CIRCLE ( 'NONE', #759, 0.1999999999999999833 ) ;
#965 = VECTOR ( 'NONE', #187, 1000.000000000000000 ) ;
#966 = CARTESIAN_POINT ( 'NONE',  ( 3.499598533506649733, 2.099650898701433732, 9.662284923264962799 ) ) ;
#967 = PLANE ( 'NONE',  #1035 ) ;
#968 = ADVANCED_FACE ( 'NONE', ( #1033 ), #939, .F. ) ;
#969 = DIRECTION ( 'NONE',  ( 0.000000000000000000, 0.000000000000000000, -1.000000000000000000 ) ) ;
#970 = DIRECTION ( 'NONE',  ( 0.000000000000000000, 0.000000000000000000, -1.000000000000000000 ) ) ;
#971 = DIRECTION ( 'NONE',  ( -0.000000000000000000, -0.000000000000000000, 1.000000000000000000 ) ) ;
#972 = DIRECTION ( 'NONE',  ( -1.000000000000000000, 0.000000000000000000, 0.000000000000000000 ) ) ;
#973 = EDGE_CURVE ( 'NONE', #182, #460, #1115, .T. ) ;
#974 = VERTEX_POINT ( 'NONE', #850 ) ;
#975 = EDGE_CURVE ( 'NONE', #475, #488, #1045, .T. ) ;
#976 = LINE ( 'NONE', #181, #531 ) ;
#977 = VERTEX_POINT ( 'NONE', #593 ) ;
#978 = CARTESIAN_POINT ( 'NONE',  ( 2.525445522320917124, -0.9487392550143255443, -0.0009999999999999158867 ) ) ;
#979 = CARTESIAN_POINT ( 'NONE',  ( -3.499598533506649733, -2.099650898701433732, 9.662284923264962799 ) ) ;
#980 = ORIENTED_EDGE ( 'NONE', *, *, #510, .F. ) ;
#981 = ORIENTED_EDGE ( 'NONE', *, *, #120, .T. ) ;
#982 = CIRCLE ( 'NONE', #253, 0.2500000000000002220 ) ;
#983 = VERTEX_POINT ( 'NONE', #69 ) ;
#984 = EDGE_CURVE ( 'NONE', #519, #844, #328, .T. ) ;
#985 = VECTOR ( 'NONE', #5, 1000.000000000000000 ) ;
#986 = VERTEX_POINT ( 'NONE', #409 ) ;
#987 = CARTESIAN_POINT ( 'NONE',  ( -2.649598533506649645, -1.499650898701433643, 1.500999999999999668 ) ) ;
#988 = CARTESIAN_POINT ( 'NONE',  ( -2.136920708549337800, 0.5636433694919364967, -0.0009999999999999158867 ) ) ;
#989 = LINE ( 'NONE', #905, #371 ) ;
#990 = ORIENTED_EDGE ( 'NONE', *, *, #623, .T. ) ;
#991 = CC_DESIGN_PERSON_AND_ORGANIZATION_ASSIGNMENT ( #883, #438, ( #149 ) ) ;
#992 = ORIENTED_EDGE ( 'NONE', *, *, #827, .F. ) ;
#993 = FACE_OUTER_BOUND ( 'NONE', #926, .T. ) ;
#994 = DIRECTION ( 'NONE',  ( -1.000000000000000000, 0.000000000000000000, 0.000000000000000000 ) ) ;
#995 = ORIENTED_EDGE ( 'NONE', *, *, #937, .F. ) ;
#996 = COORDINATED_UNIVERSAL_TIME_OFFSET ( 1, 0, .AHEAD. ) ;
#997 = DIRECTION ( 'NONE',  ( 0.000000000000000000, 0.000000000000000000, -1.000000000000000000 ) ) ;
#998 = LINE ( 'NONE', #662, #607 ) ;
#999 = ORIENTED_EDGE ( 'NONE', *, *, #377, .F. ) ;
#1000 = VECTOR ( 'NONE', #867, 1000.000000000000000 ) ;
#1001 = CALENDAR_DATE ( 2025, 17, 10 ) ;
#1002 = VECTOR ( 'NONE', #1022, 1000.000000000000000 ) ;
#1003 = CIRCLE ( 'NONE', #854, 0.1999999999999999833 ) ;
#1004 = DIRECTION ( 'NONE',  ( 0.000000000000000000, 0.000000000000000000, -1.000000000000000000 ) ) ;
#1005 = FACE_OUTER_BOUND ( 'NONE', #911, .T. ) ;
#1006 = EDGE_CURVE ( 'NONE', #325, #66, #763, .T. ) ;
#1007 = CARTESIAN_POINT ( 'NONE',  ( 2.899598533506650089, 1.499650898701433865, 0.000000000000000000 ) ) ;
#1008 = ORIENTED_EDGE ( 'NONE', *, *, #812, .F. ) ;
#1009 = DIRECTION ( 'NONE',  ( 0.000000000000000000, -1.000000000000000000, 0.000000000000000000 ) ) ;
#1010 = UNCERTAINTY_MEASURE_WITH_UNIT (LENGTH_MEASURE( 1.000000000000000082E-05 ), #523, 'distance_accuracy_value', 'NONE');
#1011 = LINE ( 'NONE', #829, #177 ) ;
#1012 = EDGE_LOOP ( 'NONE', ( #1069, #678, #839, #800 ) ) ;
#1013 = EDGE_CURVE ( 'NONE', #813, #977, #679, .T. ) ;
#1014 = CARTESIAN_POINT ( 'NONE',  ( 2.525445522320917124, -0.9487392550143255443, 1.500000000000000000 ) ) ;
#1015 = ORIENTED_EDGE ( 'NONE', *, *, #712, .F. ) ;
#1016 = DIRECTION ( 'NONE',  ( -1.000000000000000000, 0.000000000000000000, 0.000000000000000000 ) ) ;
#1017 = CARTESIAN_POINT ( 'NONE',  ( 3.499598533506649733, -2.099650898701433732, 0.000000000000000000 ) ) ;
#1018 = ORIENTED_EDGE ( 'NONE', *, *, #975, .T. ) ;
#1019 = EDGE_CURVE ( 'NONE', #844, #173, #260, .T. ) ;
#1020 = DIRECTION ( 'NONE',  ( -1.000000000000000000, 0.000000000000000000, 0.000000000000000000 ) ) ;
#1021 = AXIS2_PLACEMENT_3D ( 'NONE', #261, #429, #414 ) ;
#1022 = DIRECTION ( 'NONE',  ( -0.000000000000000000, -0.000000000000000000, -1.000000000000000000 ) ) ;
#1023 = CIRCLE ( 'NONE', #86, 0.2000000000000000944 ) ;
#1024 = LOCAL_TIME ( 15, 33, 24.00000000000000000, #391 ) ;
#1025 = ORIENTED_EDGE ( 'NONE', *, *, #731, .F. ) ;
#1026 = DIRECTION ( 'NONE',  ( -0.000000000000000000, -0.000000000000000000, -1.000000000000000000 ) ) ;
#1027 = ADVANCED_FACE ( 'NONE', ( #168 ), #500, .F. ) ;
#1028 = DIRECTION ( 'NONE',  ( 0.000000000000000000, 0.000000000000000000, -1.000000000000000000 ) ) ;
#1029 = ORIENTED_EDGE ( 'NONE', *, *, #1112, .T. ) ;
#1030 = CARTESIAN_POINT ( 'NONE',  ( 0.000000000000000000, 0.000000000000000000, 1.800000000000000044 ) ) ;
#1031 = CARTESIAN_POINT ( 'NONE',  ( 3.499598533506649733, -2.099650898701433732, 9.662284923264962799 ) ) ;
#1032 = CARTESIAN_POINT ( 'NONE',  ( -2.899598533506650089, 1.249650898701433199, 1.500000000000000000 ) ) ;
#1033 = FACE_OUTER_BOUND ( 'NONE', #201, .T. ) ;
#1034 = DIRECTION ( 'NONE',  ( 1.000000000000000000, 0.000000000000000000, 0.000000000000000000 ) ) ;
#1035 = AXIS2_PLACEMENT_3D ( 'NONE', #1078, #287, #211 ) ;
#1036 = VECTOR ( 'NONE', #344, 1000.000000000000000 ) ;
#1037 = LINE ( 'NONE', #693, #774 ) ;
#1038 = EDGE_CURVE ( 'NONE', #1088, #236, #82, .T. ) ;
#1039 = DIRECTION ( 'NONE',  ( 0.000000000000000000, -0.000000000000000000, -1.000000000000000000 ) ) ;
#1040 = FACE_OUTER_BOUND ( 'NONE', #1111, .T. ) ;
#1041 = FACE_OUTER_BOUND ( 'NONE', #584, .T. ) ;
#1042 = EDGE_CURVE ( 'NONE', #974, #108, #947, .T. ) ;
#1043 = EDGE_LOOP ( 'NONE', ( #617, #574, #243, #880 ) ) ;
#1044 = EDGE_CURVE ( 'NONE', #444, #40, #766, .T. ) ;
#1045 = LINE ( 'NONE', #335, #200 ) ;
#1046 = DIRECTION ( 'NONE',  ( -1.000000000000000000, 0.000000000000000000, 0.000000000000000000 ) ) ;
#1047 = DIRECTION ( 'NONE',  ( -0.000000000000000000, -0.000000000000000000, 1.000000000000000000 ) ) ;
#1048 = ORIENTED_EDGE ( 'NONE', *, *, #143, .T. ) ;
#1049 = DIRECTION ( 'NONE',  ( -1.000000000000000000, -3.739145816073775170E-17, -0.000000000000000000 ) ) ;
#1050 = ADVANCED_FACE ( 'NONE', ( #601, #959, #490 ), #331, .F. ) ;
#1051 = DIRECTION ( 'NONE',  ( 0.000000000000000000, 0.000000000000000000, -1.000000000000000000 ) ) ;
#1052 = DIRECTION ( 'NONE',  ( -1.000000000000000000, 0.000000000000000000, 0.000000000000000000 ) ) ;
#1053 = VECTOR ( 'NONE', #281, 1000.000000000000000 ) ;
#1054 = AXIS2_PLACEMENT_3D ( 'NONE', #570, #742, #647 ) ;
#1055 = EDGE_LOOP ( 'NONE', ( #814, #954, #48, #547 ) ) ;
#1056 = APPLICATION_PROTOCOL_DEFINITION ( 'international standard', 'config_control_design', 1994, #374 ) ;
#1057 = DIRECTION ( 'NONE',  ( 0.000000000000000000, -0.000000000000000000, 1.000000000000000000 ) ) ;
#1058 = ADVANCED_FACE ( 'NONE', ( #1126 ), #362, .F. ) ;
#1059 = DIRECTION ( 'NONE',  ( -1.000000000000000000, 0.000000000000000000, 0.000000000000000000 ) ) ;
#1060 = EDGE_LOOP ( 'NONE', ( #995, #661, #145, #148 ) ) ;
#1061 = ORIENTED_EDGE ( 'NONE', *, *, #666, .F. ) ;
#1062 = ORIENTED_EDGE ( 'NONE', *, *, #269, .T. ) ;
#1063 = ORIENTED_EDGE ( 'NONE', *, *, #418, .T. ) ;
#1064 = CARTESIAN_POINT ( 'NONE',  ( -0.6476502914506622188, -0.3636433694919364856, 1.800000000000000044 ) ) ;
#1065 = CARTESIAN_POINT ( 'NONE',  ( 0.7639268976790800636, 1.148739255014327387, -0.0009999999999999158867 ) ) ;
#1066 = ADVANCED_FACE ( 'NONE', ( #716 ), #873, .F. ) ;
#1067 = ORIENTED_EDGE ( 'NONE', *, *, #366, .F. ) ;
#1068 = LINE ( 'NONE', #285, #178 ) ;
#1069 = ORIENTED_EDGE ( 'NONE', *, *, #402, .F. ) ;
#1070 = DIRECTION ( 'NONE',  ( -0.000000000000000000, -0.000000000000000000, 1.000000000000000000 ) ) ;
#1071 = EDGE_LOOP ( 'NONE', ( #1081, #1061, #664, #837 ) ) ;
#1072 = DIRECTION ( 'NONE',  ( -0.000000000000000000, -0.000000000000000000, -1.000000000000000000 ) ) ;
#1073 = CIRCLE ( 'NONE', #834, 0.2499999999999997780 ) ;
#1074 = VERTEX_POINT ( 'NONE', #891 ) ;
#1075 = VECTOR ( 'NONE', #417, 1000.000000000000000 ) ;
#1076 = VECTOR ( 'NONE', #254, 1000.000000000000000 ) ;
#1077 = APPROVAL_PERSON_ORGANIZATION ( #638, #822, #57 ) ;
#1078 = CARTESIAN_POINT ( 'NONE',  ( -3.499598533506649733, -2.099650898701433732, 9.662284923264962799 ) ) ;
#1079 = ORIENTED_EDGE ( 'NONE', *, *, #73, .F. ) ;
#1080 = DIRECTION ( 'NONE',  ( 0.000000000000000000, 0.000000000000000000, -1.000000000000000000 ) ) ;
#1081 = ORIENTED_EDGE ( 'NONE', *, *, #413, .F. ) ;
#1082 = ORIENTED_EDGE ( 'NONE', *, *, #246, .T. ) ;
#1083 = APPROVAL_DATE_TIME ( #228, #649 ) ;
#1084 = EDGE_CURVE ( 'NONE', #292, #40, #368, .T. ) ;
#1085 = APPLICATION_CONTEXT ( 'configuration controlled 3d designs of mechanical parts and assemblies' ) ;
#1086 = CARTESIAN_POINT ( 'NONE',  ( -2.136920708549337800, -0.5636433694919364967, 1.800000000000000044 ) ) ;
#1087 = CARTESIAN_POINT ( 'NONE',  ( 0.7639268976790800636, 0.9487392550143273207, 1.500000000000000000 ) ) ;
#1088 = VERTEX_POINT ( 'NONE', #280 ) ;
#1089 = ORIENTED_EDGE ( 'NONE', *, *, #352, .F. ) ;
#1090 = CARTESIAN_POINT ( 'NONE',  ( -2.899598533506650089, 1.499650898701433643, 1.499999999999999556 ) ) ;
#1091 = EDGE_CURVE ( 'NONE', #25, #642, #624, .T. ) ;
#1092 = ORIENTED_EDGE ( 'NONE', *, *, #332, .F. ) ;
#1093 = DIRECTION ( 'NONE',  ( -0.000000000000000000, -0.000000000000000000, -1.000000000000000000 ) ) ;
#1094 = VERTEX_POINT ( 'NONE', #780 ) ;
#1095 = AXIS2_PLACEMENT_3D ( 'NONE', #629, #969, #713 ) ;
#1096 = APPROVAL_STATUS ( 'not_yet_approved' ) ;
#1097 = AXIS2_PLACEMENT_3D ( 'NONE', #42, #47, #1016 ) ;
#1098 = VECTOR ( 'NONE', #244, 1000.000000000000000 ) ;
#1099 = CARTESIAN_POINT ( 'NONE',  ( -1.936920708549337622, -0.3636433694919364856, 1.500000000000000000 ) ) ;
#1100 = APPROVAL ( #209, 'UNSPECIFIED' ) ;
#1101 = LINE ( 'NONE', #399, #498 ) ;
#1102 = ORIENTED_EDGE ( 'NONE', *, *, #812, .T. ) ;
#1103 = SECURITY_CLASSIFICATION_LEVEL ( 'unclassified' ) ;
#1104 = DIRECTION ( 'NONE',  ( -1.000000000000000000, 0.000000000000000000, 0.000000000000000000 ) ) ;
#1105 = LINE ( 'NONE', #655, #480 ) ;
#1106 = DIRECTION ( 'NONE',  ( 0.000000000000000000, 0.000000000000000000, -1.000000000000000000 ) ) ;
#1107 = ADVANCED_FACE ( 'NONE', ( #358 ), #452, .F. ) ;
#1108 = DATE_AND_TIME ( #815, #577 ) ;
#1109 = DIRECTION ( 'NONE',  ( 0.000000000000000000, 0.000000000000000000, -1.000000000000000000 ) ) ;
#1110 = DIRECTION ( 'NONE',  ( -1.000000000000000000, 0.000000000000000000, 0.000000000000000000 ) ) ;
#1111 = EDGE_LOOP ( 'NONE', ( #453, #122, #801, #636 ) ) ;
#1112 = EDGE_CURVE ( 'NONE', #680, #62, #1068, .T. ) ;
#1113 = PRODUCT_DEFINITION_SHAPE ( 'NONE', 'NONE',  #29 ) ;
#1114 = AXIS2_PLACEMENT_3D ( 'NONE', #1007, #1106, #562 ) ;
#1115 = LINE ( 'NONE', #950, #1076 ) ;
#1116 = AXIS2_PLACEMENT_3D ( 'NONE', #454, #1070, #359 ) ;
#1117 = CARTESIAN_POINT ( 'NONE',  ( 2.725445522320917302, -0.9487392550143255443, 1.800000000000000044 ) ) ;
#1118 = AXIS2_PLACEMENT_3D ( 'NONE', #318, #126, #924 ) ;
#1119 = CC_DESIGN_APPROVAL ( #822, ( #425 ) ) ;
#1120 = ORIENTED_EDGE ( 'NONE', *, *, #522, .T. ) ;
#1121 = CARTESIAN_POINT ( 'NONE',  ( -2.899598533506650089, 1.249650898701433199, 1.500999999999999668 ) ) ;
#1122 = ORIENTED_EDGE ( 'NONE', *, *, #961, .F. ) ;
#1123 = EDGE_CURVE ( 'NONE', #292, #1094, #976, .T. ) ;
#1124 = CARTESIAN_POINT ( 'NONE',  ( -2.649598533506649201, 1.499650898701433643, 1.499999999999999556 ) ) ;
#1125 = CARTESIAN_POINT ( 'NONE',  ( 2.649598533506649645, 1.499650898701433865, 1.500000000000000000 ) ) ;
#1126 = FACE_OUTER_BOUND ( 'NONE', #1071, .T. ) ;
#1127 = CARTESIAN_POINT ( 'NONE',  ( -3.499598533506649733, 2.099650898701433732, 0.000000000000000000 ) ) ;
#1128 = EDGE_CURVE ( 'NONE', #96, #37, #536, .T. ) ;
#1129 = CARTESIAN_POINT ( 'NONE',  ( -2.649598533506649645, -1.499650898701433643, 0.000000000000000000 ) ) ;
#1130 = ORIENTED_EDGE ( 'NONE', *, *, #1123, .F. ) ;
#1131 = CARTESIAN_POINT ( 'NONE',  ( 3.499598533506649733, -2.099650898701433732, 1.800000000000000044 ) ) ;
#1132 = VECTOR ( 'NONE', #948, 1000.000000000000000 ) ;
#1133 = CARTESIAN_POINT ( 'NONE',  ( -2.899598533506650089, -1.499650898701433643, 1.500000000000000000 ) ) ;
#1134 = VECTOR ( 'NONE', #719, 1000.000000000000000 ) ;
#1135 = PRODUCT_RELATED_PRODUCT_CATEGORY ( 'detail', '', ( #149 ) ) ;
#1136 = CIRCLE ( 'NONE', #311, 0.2500000000000002220 ) ;
#1137 = LINE ( 'NONE', #855, #851 ) ;
#1138 = DIRECTION ( 'NONE',  ( -1.000000000000000000, 0.000000000000000000, 0.000000000000000000 ) ) ;
#1139 = CARTESIAN_POINT ( 'NONE',  ( 2.899598533506650089, -1.249650898701433643, 0.000000000000000000 ) ) ;
#1140 = CARTESIAN_POINT ( 'NONE',  ( 0.9639268976790801302, 1.148739255014327387, 1.500000000000000000 ) ) ;
#1141 = ADVANCED_FACE ( 'NONE', ( #19 ), #877, .F. ) ;
ENDSEC;
END-ISO-10303-21;
